<?xml version="1.0" standalone="no"?>
<!DOCTYPE svg PUBLIC "-//W3C//DTD SVG 1.1//EN" "http://www.w3.org/Graphics/SVG/1.1/DTD/svg11.dtd" >
<svg>
<metadata>
Created by FontForge 20110222 at Mon Mar  7 13:25:53 2011
 By www-data
Copyright 1995 Southern Software, Inc., All Rights Reserved
</metadata>
<defs>
<font id="KoreanTimesSSK" horiz-adv-x="0" >
  <font-face 
    font-family="KoreanTimesSSK"
    font-weight="400"
    font-stretch="normal"
    units-per-em="2048"
    panose-1="0 0 4 0 0 0 0 0 0 0"
    ascent="1638"
    descent="-410"
    x-height="1406"
    cap-height="1374"
    bbox="-255 -352 1694 1694"
    underline-thickness="97"
    underline-position="-182"
    unicode-range="U+0020-2122"
  />
    <missing-glyph />
    <glyph glyph-name="space" unicode=" " horiz-adv-x="517" 
 />
    <glyph glyph-name="exclam" unicode="!" horiz-adv-x="551" 
d="M391 1264l-91 -877h-48q-28 215 -56 429q-33 259 -33 432q0 145 113 145q52 0 86 -38.5t29 -90.5zM391 101q0 -48 -34 -81.5t-81 -33.5q-48 0 -81 34t-33 81q0 48 34 81t82 33q46 0 79.5 -34t33.5 -80z" />
    <glyph glyph-name="quotedbl" unicode="&#x22;" horiz-adv-x="754" 
d="M639 1268q0 -54 -45 -331h-114q-46 277 -46 331q0 131 102 131q103 0 103 -131zM319 1268q0 -54 -45 -331h-114q-46 277 -46 331q0 131 102 131q103 0 103 -131z" />
    <glyph glyph-name="numbersign" unicode="#" horiz-adv-x="1034" 
d="M982 940l-15 -90h-188l-53 -295h188l-16 -89h-187l-83 -466h-96l82 466h-276l-81 -466h-97l82 466h-187l16 89h187l52 295h-188l16 90h187l78 439h96l-77 -439h276l78 439h96l-77 -439h187zM682 850h-276l-51 -295h275z" />
    <glyph glyph-name="dollar" unicode="$" horiz-adv-x="1034" 
d="M943 363q0 -163 -114 -263q-103 -90 -271 -109v-169h-94v169q-189 28 -368 151v328h47q47 -343 321 -391v541q-218 134 -253 166q-120 107 -120 261q0 162 107 259q103 94 266 94v137h94v-137q136 -19 303 -150v-299h-43q-28 291 -260 357v-478q212 -133 263 -181
q122 -118 122 -286zM464 883v430q-195 -22 -195 -185q0 -77 65 -144q33 -35 130 -101zM741 301q0 86 -57 154q-26 31 -126 112v-483q82 19 132.5 76.5t50.5 140.5z" />
    <glyph glyph-name="percent" unicode="%" horiz-adv-x="1358" 
d="M646 1093q0 -126 -66 -211q-73 -91 -195 -91q-128 0 -199 88q-66 82 -66 213q0 127 68 210q73 91 197 91q125 0 196 -90q65 -82 65 -210zM1132 1379l-842 -1379h-84l841 1379h85zM1239 287q0 -130 -65 -212q-71 -89 -197 -89q-132 0 -201 92q-63 82 -63 218q0 122 68 206
q73 90 193 90q127 0 199 -91q66 -84 66 -214zM509 1090q0 260 -125 260q-128 0 -128 -264q0 -256 127 -256q70 0 103 99q23 69 23 161zM1103 291q0 258 -125 258q-127 0 -127 -250q0 -274 125 -274q70 0 103 102q24 72 24 164z" />
    <glyph glyph-name="ampersand" unicode="&#x26;" horiz-adv-x="1488" 
d="M1443 271q-23 -116 -95 -196q-82 -90 -193 -90q-148 0 -336 188q-219 -185 -407 -185q-140 0 -239 85q-105 90 -105 228q0 296 388 481q-66 167 -66 284q0 132 93.5 230t225.5 98q108 0 181 -70t73 -178q0 -121 -92 -210q-51 -50 -195 -134q103 -223 228 -395
q144 177 144 331q0 93 -90 108v36h402v-37q-106 -12 -228 -211q-86 -151 -171 -302q140 -185 277 -185q114 0 169 139zM837 1157q0 157 -121 157q-67 0 -105 -57q-32 -49 -32 -121q0 -111 63 -256q195 111 195 277zM763 238q-129 164 -274 466q-109 -72 -150 -121
q-61 -75 -61 -180t66 -190q72 -90 174 -90q120 0 245 115z" />
    <glyph glyph-name="quotesingle" unicode="'" horiz-adv-x="434" 
d="M319 1268q0 -54 -45 -331h-114q-46 277 -46 331q0 131 102 131q103 0 103 -131z" />
    <glyph glyph-name="parenleft" unicode="(" horiz-adv-x="776" 
d="M648 -319l-27 -33q-254 123 -387 357q-128 223 -128 515q0 601 515 873l27 -34q-355 -226 -355 -839t355 -839z" />
    <glyph glyph-name="parenright" unicode=")" horiz-adv-x="776" 
d="M670 520q0 -606 -515 -872l-28 33q356 226 356 839q0 616 -356 839l28 34q255 -127 387 -357q128 -223 128 -516z" />
    <glyph glyph-name="asterisk" unicode="*" horiz-adv-x="999" 
d="M867 1101q0 -91 -152 -91q-23 0 -59 2t-45 2q-40 0 -81 -13q13 -18 134 -105q93 -68 93 -128q0 -34 -24 -58t-57 -24q-52 0 -86 59q-19 34 -46 124q-25 84 -44 110q-16 -24 -42 -108q-28 -89 -49 -125q-35 -60 -86 -60q-32 0 -57 24.5t-25 56.5q0 63 92 127
q118 82 136 107q-31 9 -68 11q-26 1 -69 -2q-51 -2 -69 -2q-50 0 -87 21q-44 26 -44 72q0 36 25.5 61t61.5 25q52 0 132 -64q93 -73 130 -86q0 47 -33.5 131t-33.5 129q0 39 23.5 67.5t62.5 28.5t62.5 -28.5t23.5 -67.5q0 -44 -34 -129t-34 -131q38 13 130 87q78 63 131 63
q36 0 62 -25t26 -61z" />
    <glyph glyph-name="plus" unicode="+" horiz-adv-x="1034" 
d="M951 641h-386v-400h-96v400h-386v96h386v400h96v-400h386v-96z" />
    <glyph glyph-name="comma" unicode="," horiz-adv-x="483" 
d="M364 34q0 -112 -78 -188q-72 -69 -187 -87v34q177 55 177 210q-43 -10 -61 -10q-45 0 -77.5 33t-32.5 78q0 47 34 79t81 32q66 0 107 -59q37 -53 37 -122z" />
    <glyph glyph-name="hyphen" unicode="-" horiz-adv-x="415" 
d="M415 405h-415v162h415v-162z" />
    <glyph glyph-name="hyphen" unicode="&#x2010;" horiz-adv-x="415" 
d="M415 405h-415v162h415v-162z" />
    <glyph glyph-name="period" unicode="." horiz-adv-x="483" 
d="M357 101q0 -48 -34 -81.5t-82 -33.5q-47 0 -80.5 34t-33.5 81q0 48 34.5 81t81.5 33t80.5 -34t33.5 -80z" />
    <glyph glyph-name="slash" unicode="/" horiz-adv-x="716" 
d="M603 1379l-432 -1599h-99l413 1599h118z" />
    <glyph glyph-name="zero" unicode="0" horiz-adv-x="1034" 
d="M961 692q0 -264 -94 -457q-120 -249 -356 -249q-227 0 -345 253q-91 196 -91 451q0 259 92 453q119 250 350 250t351 -250q93 -193 93 -451zM765 696q0 618 -248 618q-246 0 -246 -623q0 -626 242 -626q252 0 252 631z" />
    <glyph glyph-name="one" unicode="1" horiz-adv-x="1034" 
d="M804 0h-506v38q100 0 135 40q34 37 34 139v821q0 94 -4 115q-12 73 -63 73q-34 0 -102 -28l-12 32q87 47 175 93q137 71 169 71q4 0 7 -1v-1176q0 -103 32 -139q35 -40 135 -40v-38z" />
    <glyph glyph-name="two" unicode="2" horiz-adv-x="1034" 
d="M947 243q-51 -133 -101 -243h-748v27q304 309 385 411q223 282 223 502q0 116 -75 206q-78 94 -192 94q-190 0 -265 -228l-35 5q63 376 366 376q159 0 260 -105.5t101 -265.5q0 -218 -202 -480q-99 -130 -368 -395l398 -4q138 -1 217 100h36z" />
    <glyph glyph-name="three" unicode="3" horiz-adv-x="1034" 
d="M878 459q0 -202 -155 -340q-150 -133 -354 -133q-80 0 -146 27q-88 37 -88 105q0 27 24.5 50.5t51.5 23.5q37 0 123 -57t151 -57q108 0 175 83q63 78 63 188q0 163 -96 252q-92 84 -254 89v32q133 17 219 92q96 84 96 213q0 93 -58 161q-60 72 -151 72q-136 0 -237 -166
l-31 18q90 281 331 281q125 0 214 -81q93 -83 93 -206q0 -155 -185 -307q214 -117 214 -340z" />
    <glyph glyph-name="four" unicode="4" horiz-adv-x="1034" 
d="M954 375h-171v-375h-168v375h-516v144l580 873h104v-873h171v-144zM615 519v624l-418 -624h418z" />
    <glyph glyph-name="five" unicode="5" horiz-adv-x="1034" 
d="M883 1379l-70 -152h-371l-98 -218q215 -39 358 -172q158 -148 158 -355q0 -202 -150.5 -349t-352.5 -147q-79 0 -141 30q-78 38 -78 109q0 30 23.5 50t52.5 20q25 0 101 -47.5t146 -47.5q113 0 192 95q73 89 73 205q0 199 -178 326q-160 114 -367 114l236 539h466z" />
    <glyph glyph-name="six" unicode="6" horiz-adv-x="1034" 
d="M911 446q0 -179 -106 -314q-115 -146 -291 -146q-190 0 -301 192q-93 161 -93 365q0 352 206 594q217 256 562 256v-38q-218 -26 -366 -192q-128 -145 -188 -377q109 69 220 69q166 0 265 -124q92 -115 92 -285zM731 344q0 150 -46 263q-62 153 -188 153q-88 0 -183 -75
q-14 -78 -14 -169q0 -161 48 -288q66 -173 199 -173q98 0 147 102q37 78 37 187z" />
    <glyph glyph-name="seven" unicode="7" horiz-adv-x="1034" 
d="M920 1379l-433 -1393l-116 33l377 1207h-309q-132 0 -180 -24q-62 -31 -115 -145l-31 23l127 299h680z" />
    <glyph glyph-name="eight" unicode="8" horiz-adv-x="1034" 
d="M884 325q0 -151 -109 -247q-104 -92 -257 -92q-152 0 -255 81q-113 88 -113 236q0 195 263 381q-119 103 -167 168q-79 106 -79 219q0 142 102 234q99 88 243 88q138 0 237 -86q104 -90 104 -225q0 -179 -244 -333q129 -109 185 -184q90 -119 90 -240zM715 1077
q0 101 -50 169q-57 77 -154 77q-80 0 -139 -58t-59 -138q0 -95 83 -191q48 -56 161 -143q158 130 158 284zM737 259q0 100 -95 213q-29 36 -172 171q-165 -147 -165 -314q0 -118 54 -188q60 -78 174 -78q88 0 146 54t58 142z" />
    <glyph glyph-name="nine" unicode="9" horiz-adv-x="1034" 
d="M913 838q0 -299 -194 -567q-213 -294 -500 -285l-112 3v38q429 40 584 571q-126 -76 -222 -76q-165 0 -262 127q-88 115 -88 283q0 185 99 316q108 145 287 145q201 0 313 -184q95 -156 95 -371zM730 882q0 154 -44 272q-61 166 -188 166q-106 0 -159 -101
q-41 -79 -41 -195q0 -149 44 -255q60 -146 187 -146q71 0 185 70q16 107 16 189z" />
    <glyph glyph-name="colon" unicode=":" horiz-adv-x="483" 
d="M357 851q0 -47 -34 -81t-82 -34q-47 0 -80.5 34t-33.5 81q0 48 34.5 81.5t81.5 33.5t80.5 -34t33.5 -81zM357 101q0 -48 -34 -81.5t-82 -33.5q-47 0 -80.5 34t-33.5 81q0 48 34.5 81t81.5 33t80.5 -34t33.5 -80z" />
    <glyph glyph-name="semicolon" unicode=";" horiz-adv-x="483" 
d="M339 851q0 -47 -33.5 -81t-80.5 -34q-49 0 -82 33.5t-33 82.5q0 48 34.5 81t81.5 33q46 0 79.5 -34t33.5 -81zM364 34q0 -112 -78 -188q-72 -69 -187 -87v34q177 55 177 210q-43 -10 -61 -10q-45 0 -77.5 33t-32.5 78q0 47 34 79t81 32q66 0 107 -59q37 -53 37 -122z" />
    <glyph glyph-name="less" unicode="&#x3c;" horiz-adv-x="1034" 
d="M946 134l-858 577v13l858 551v-86l-626 -407l626 -419v-229z" />
    <glyph glyph-name="equal" unicode="=" horiz-adv-x="1034" 
d="M951 778h-868v97h868v-97zM951 504h-868v97h868v-97z" />
    <glyph glyph-name="greater" unicode="&#x3e;" horiz-adv-x="1034" 
d="M946 685l-858 -551v86l626 407l-626 419v229l858 -577v-13z" />
    <glyph glyph-name="question" unicode="?" horiz-adv-x="826" 
d="M726 1097q0 -126 -85 -251q-79 -105 -159 -210q-85 -130 -85 -270h-47q0 165 90 382t90 340q0 92 -37 158q-45 81 -130 81q-66 0 -115 -37q-54 -40 -54 -103q0 -18 31.5 -69.5t31.5 -79.5q0 -34 -26 -56.5t-61 -22.5q-52 0 -84 49q-28 43 -28 98q0 125 107 209
q100 78 228 78q132 0 229 -81q104 -86 104 -215zM488 101q0 -47 -33.5 -81t-80.5 -34q-49 0 -82 33t-33 82q0 48 34 81t82 33q46 0 79.5 -34t33.5 -80z" />
    <glyph glyph-name="at" unicode="@" horiz-adv-x="1034" 
d="M957 1247q0 -103 -169 -344q-166 -236 -361 -416q-217 -202 -328 -194q22 42 81 94q86 75 95 84q195 207 288 328q167 217 205 380l-20 2q-69 0 -200 -23.5t-171 -23.5q-47 0 -125 36q-90 40 -87 80l1 17l69 9q60 0 179.5 -8.5t179.5 -8.5h108q29 0 83.5 14t81.5 14
q14 0 41 -5q32 -5 42 -5z" />
    <glyph glyph-name="A" unicode="A" horiz-adv-x="1034" 
d="M995 1246q0 -158 -213 -501q-208 -335 -341 -414l-53 1q197 280 270 408q135 240 172 456v8q-71 -18 -110 -18q-49 0 -106 28q-193 -470 -530 -676l-59 -1q138 133 268 310q171 232 171 352q-52 -12 -104 -23q-69 -16 -105 -16q-84 0 -148 122q109 -12 209 -12
q39 0 110 16.5t107 16.5q71 0 94 -27l361 18z" />
    <glyph glyph-name="B" unicode="B" horiz-adv-x="1034" 
d="M1076 746q-67 -77 -339 -161q-253 -78 -379 -78q-49 0 -76 61q-19 46 -19 103v500q0 34 -151 79v44l82 11q194 0 194 -97v-564l19 -16q73 4 219 17q61 8 222 55q156 46 167 46h61z" />
    <glyph glyph-name="C" unicode="C" horiz-adv-x="1034" 
d="M1095 577q-89 -81 -367 -170q-266 -86 -399 -86q-94 0 -94 370q0 61 2.5 190.5t2.5 192.5q0 40 -64 71l-100 38q18 36 46 46q18 7 66 7q42 0 123.5 -14t120.5 -14q71 0 201.5 32t192.5 32q116 0 116 -56q0 -96 -568 -96q-10 -526 -10 -538q0 -57 13 -105q26 -18 52 -18
q115 0 337 59t329 59z" />
    <glyph glyph-name="D" unicode="D" horiz-adv-x="1034" 
d="M1091 624q0 -64 -145 -144q-135 -75 -210 -75q-59 0 -78 81l-14 124q-243 -184 -360 -184q-93 0 -93 444q0 52 1.5 134.5t1.5 105.5q0 30 -1 44q-4 60 -116 97v50q85 12 64 12q31 0 91 -18.5t88 -18.5q25 0 69.5 20.5t69.5 20.5q27 0 53 -15q31 -17 31 -42q0 -60 -90 -74
q-65 -3 -130 -5v-608h58q23 0 130 51q102 49 130 70v498q0 11 -42 60q-47 55 -55 69q27 11 51 11q33 0 95.5 -16.5t94.5 -16.5q12 0 64.5 20.5t90.5 20.5q95 0 95 -55q0 -51 -107 -68q-77 -8 -153 -16v-648l27 -8q44 0 138 44l138 66z" />
    <glyph glyph-name="E" unicode="E" horiz-adv-x="1034" 
d="M1067 574q-204 -116 -337 -167q-192 -74 -366 -74q-134 0 -134 270q0 59 7 131q4 36 7 71l-18 26q-72 17 -135 52q25 30 70 53l218 -30q23 -3 68 -3q250 0 250 73q0 197 -2 253l-12 1q-29 3 -57 3q-147 0 -304 -64q-119 32 -201 132q48 0 175 -3q110 -2 174 -1
q96 1 174 10q12 1 46 12q31 9 43 9q27 0 75 -11q53 -13 76 -15q-30 -89 -59 -179q-32 -104 -39 -184l13 -21l58 -30q-63 -48 -230 -51q-187 -3 -244 -26l-7 -308q-1 -25 22 -37q417 37 560 117z" />
    <glyph glyph-name="F" unicode="F" horiz-adv-x="1034" 
d="M997 1186q-64 -96 -84 -250q-13 -136 -25 -271q21 -17 68 -45q-32 -74 -339 -74q-58 0 -134.5 2.5t-82.5 2.5q-10 -69 -70 -151q-72 28 -95 344q-4 162 -9 324q0 14 -61 50q-39 22 -78 43v49h651q21 0 65 14t67 14q70 0 104 -14q13 -11 23 -38zM782 665v453l-217 -11
q-84 -2 -176 -7q-12 -5 -12 -50q0 -7 16 -414h273q43 0 116 29z" />
    <glyph glyph-name="G" unicode="G" horiz-adv-x="1034" 
d="M984 1218q0 -95 -6 -286.5t-6 -287.5q0 -82 -12 -121q-15 -54 -65 -102q-37 37 -44 47q-15 22 -16 59h-440q-28 -148 -74 -148l-27 10q-40 65 -40 217q0 58 8 184.5t8 185.5q0 140 -34 209q-68 16 -157 72q35 38 152 38q108 0 143 -20q31 -19 31 -74q0 -16 -3.5 -65.5
t-3.5 -85.5l429 -2q15 59 15 126q0 40 -83.5 87.5t-83.5 109.5q68 -4 136 -7q81 -7 121 -34q52 -35 52 -112zM825 606v352l-419 9v-361h419z" />
    <glyph glyph-name="H" unicode="H" horiz-adv-x="1034" 
d="M992 554q0 -70 -51 -157q-47 21 -49 23q-19 14 -24 49h-138q-49 -96 -77 -96q-14 0 -28.5 23.5t-14.5 38.5v647q0 151 -35 170q-41 22 -73 80h100q10 0 129 -44v-312h134l2 189q0 67 -21 94q-17 23 -82 53v45q113 -5 120 -6q55 -8 108 -41v-756zM529 1239l-7 -693
q0 -37 -18 -97q-19 -64 -41 -88q-34 15 -63 45q-6 22 -8 42h-151q-16 -57 -21 -67q-12 -28 -43 -53q-59 79 -59 245v552q0 35 -43 58q-13 6 -73 26v48l67 2q119 4 155 -19q33 -22 33 -97q0 -18 -3 -79.5t-3 -106.5h140v215q0 15 -42.5 52.5t-45.5 69.5q144 0 226 -55z
M865 552v347h-126v-347h126zM383 535v346h-129v-346h129z" />
    <glyph glyph-name="I" unicode="I" horiz-adv-x="1034" 
d="M988 606q0 -53 -54 -78q-46 13 -168 174q-80 109 -160 217q-187 -257 -433 -424l-41 6l2 24q474 552 474 701q0 20 -107 105v43h78q23 0 109 -50q90 -52 90 -76q0 -53 -126 -252q9 -25 98 -99q115 -94 156 -139q82 -87 82 -152z" />
    <glyph glyph-name="J" unicode="J" horiz-adv-x="1034" 
d="M1019 542l-15 -32q-25 -12 -47 -12q-40 0 -105 127q-42 86 -83 173q-133 -195 -184 -251q-122 -135 -254 -162q132 136 276 378q165 276 165 412q0 19 -51 66q-56 54 -68 80h97q37 0 100.5 -38t72.5 -71q-37 -105 -103 -319q62 -81 124 -161q75 -109 75 -190zM586 774
q0 -66 -44 -66q-39 0 -95 100l-58 118q-136 -179 -298 -315h-71q355 403 355 535q0 26 -87 94v42h74q24 0 90.5 -46.5t66.5 -69.5q0 -26 -27 -84q-25 -52 -45 -78q92 -101 94 -104q45 -59 45 -126z" />
    <glyph glyph-name="K" unicode="K" horiz-adv-x="1034" 
d="M924 846q0 -156 -119 -255q-112 -92 -272 -92q-167 0 -268 89q-105 93 -105 258q0 127 88 204q52 44 176 94q107 42 124 74q-29 56 -29 70q0 7 2 15h56q22 0 54 -29t41 -51q1 -17 -34 -62q142 -43 206 -104q80 -76 80 -211zM787 844q0 97 -79 163q-74 62 -173 62
t-170 -63t-71 -162t72 -169.5t171 -70.5q96 0 173 72.5t77 167.5z" />
    <glyph glyph-name="L" unicode="L" horiz-adv-x="1034" 
d="M983 467q0 -53 -46 -53q-27 0 -162 145q-83 91 -165 182q-149 -157 -255 -239q-133 -103 -300 -177l12 60q257 219 366 342q141 159 282 415l-17 3q-62 0 -182.5 -21t-176.5 -21q-36 0 -107 48q-58 39 -96 76q41 0 122.5 -5.5t122.5 -5.5q315 0 496 23l23 -35
q-125 -267 -238 -386q31 -38 122 -107q100 -74 135 -112q64 -67 64 -132z" />
    <glyph glyph-name="M" unicode="M" horiz-adv-x="1034" 
d="M1006 554q0 -44 -44 -44q-26 0 -102 133q-95 167 -98 171q-265 -356 -476 -407q186 212 271 328q-10 -10 -26 -10q-37 0 -134 190q-59 -97 -168 -191q-114 -98 -217 -134q214 269 222 279q122 169 170 314l-23 2q-24 2 -66 -14q-45 -17 -66 -17q-48 0 -87 33
q-12 10 -65 70q15 1 40 0q30 -2 41 -2q90 0 294 25q16 2 50 -9t48 -22q53 0 160 9.5t159 9.5q34 0 73 -15q-8 -23 -78 -192q-65 -158 -65 -164q0 -24 49 -70q64 -61 90 -101q48 -76 48 -172zM794 1178l-19 2q-24 0 -68 -15t-67 -15q-49 0 -88 31q-31 -59 -88 -178
q3 -6 75 -85q40 -44 40 -111q0 -36 -11 -57q158 218 226 428z" />
    <glyph glyph-name="N" unicode="N" horiz-adv-x="1034" 
d="M792 1331q0 -50 -93 -63q-24 -4 -121 -4q-156 0 -208 137q207 -27 236 -27q16 0 48.5 5t48.5 5q89 0 89 -53zM985 468l-5 -19q-29 -32 -53 -32q-49 0 -147 128q-111 145 -138 161q-193 -160 -244 -198q-141 -105 -268 -162l-40 14q39 55 131 130q137 110 147 119
q224 206 361 442q-48 0 -403 -41q-36 -4 -98 40q-54 38 -80 75l432 -2q150 0 188 26q49 1 153 -18q-20 -97 -223 -352q87 -70 174 -139q113 -98 113 -172z" />
    <glyph glyph-name="O" unicode="O" horiz-adv-x="1034" 
d="M964 1257q-127 -330 -216 -483q-136 -236 -346 -399q-80 -62 -109 -79q-61 -36 -127 -40q0 3 230 254q235 258 281 381q-37 -6 -193 -48q-132 -36 -185 -36q-52 0 -130.5 48.5t-98.5 94.5q104 -14 216 -14q85 0 221 17q174 21 201 51q34 37 69 180q-98 6 -94 6
q-53 0 -155 -20t-150 -20q-82 0 -185 124q82 16 205 16q67 0 182 -6q123 -6 164 -6q25 -1 75.5 8t76.5 9q31 0 54 -7q14 -12 14 -31z" />
    <glyph glyph-name="P" unicode="P" horiz-adv-x="1034" 
d="M1022 689l-10 -26q-92 -63 -317 -153q-244 -98 -342 -98q-45 0 -74 33.5t-29 79.5v619q0 26 -68 61q-49 23 -97 45q38 35 101 35q35 0 104 -14t103 -14q78 0 209.5 29t182.5 29q109 0 109 -58l-14 -31q-49 -32 -244 -32q-209 -1 -257 -19v-259h112q45 0 133 24t126 24
q133 0 133 -57q0 -47 -66 -51l-439 -23l-12 -286q14 -14 73 -14q169 0 567 173z" />
    <glyph glyph-name="Q" unicode="Q" horiz-adv-x="1034" 
d="M964 1239q0 -48 -41 -58q-39 -1 -78 -3q-147 -2 -431 -26q-11 -1 -66 -16q-43 -11 -65 -11q-44 0 -150 83l-10 47q34 0 100 -11.5t98 -11.5h161q191 0 269 41q46 23 103 23q30 0 65 -14q45 -18 45 -43zM1048 697l-6 -96q-683 -189 -729 -189q-83 0 -258 105v50
q24 -1 71 -10.5t69 -9.5h198q48 0 133 16q67 12 134 25l55 376q7 45 -103 108v45h81q32 0 88 -32.5t75 -63.5l-114 -414q220 23 306 90zM509 761q0 -35 -27 -94q-31 -66 -60 -66q-40 0 -51 82q-8 74 -40 222q-25 58 -64 180q81 -35 159 -136q83 -106 83 -188z" />
    <glyph glyph-name="R" unicode="R" horiz-adv-x="1034" 
d="M770 1313q0 -69 -201 -69q-227 0 -283 152q40 0 110 -10q76 -11 110 -12h179q16 0 50.5 -23t34.5 -38zM1006 1117q-22 -27 -36 -40q-28 -26 -222 -26q-21 0 -66 1h-69q-290 0 -357 -47q-118 0 -224 124h641q34 0 99 25t103 25q50 0 72.5 -11t58.5 -51zM879 645
q0 -126 -116 -197q-98 -61 -232 -61q-137 0 -230 71q-102 78 -102 211q0 110 67 172q45 41 137.5 69t105.5 39q-10 21 -19 72h39q32 0 58 -19t26 -46q0 -13 -6 -26q145 -59 191 -98q81 -67 81 -187zM743 671q0 76 -67 128q-62 48 -141 48q-81 0 -140 -44q-65 -50 -65 -128
q0 -80 72 -133q66 -48 148 -48q78 0 135.5 50t57.5 127z" />
    <glyph glyph-name="S" unicode="S" 
d="M1541 1408l-112 -388q-60 -171 -178 -330h-55q9 37 36 81q45 73 68 271q11 137 23 275q-65 7 -132 7q-127 0 -378 -36.5t-374 -36.5q-51 0 -142 59t-110 107l13 -1q164 -14 375 -14q284 0 576 15q38 2 131 17q85 13 130 13q74 0 129 -39z" />
    <glyph glyph-name="T" unicode="T" 
d="M1565 1424q-62 -223 -124 -445q-107 -343 -208 -343l-11 1q139 583 139 709q-11 10 -93 10q-40 0 -116.5 -21t-110.5 -21q-98 0 -180 131q385 0 407 2q28 2 93 18q61 16 89 16q17 0 50.5 -7t50.5 -7q7 -27 14 -43zM824 1415q-83 -195 -167 -389q-138 -304 -196 -336
l-99 -54q104 203 153 341q54 152 97 375l-16 6q-47 0 -137 -28.5t-130 -28.5q-57 0 -126 48q-62 42 -98 96l62 2q46 2 130 -7q91 -9 131 -9q50 0 133 17q66 14 131 29q9 1 20 1q91 0 112 -63z" />
    <glyph glyph-name="U" unicode="U" 
d="M1472 937q0 -87 -295 -87q-48 0 -122 2q-69 3 -84 2l-410 -6q-166 -2 -166 283q0 46 4.5 116t4.5 87q0 33 -94 73l-130 52q58 57 139 57q171 0 225 -40q48 -35 48 -146q0 -20 -5 -136q-4 -103 -2 -185q6 -16 15 -41q28 -19 93 -19q276 0 225 -1q136 3 223 24l177 41
q51 0 94 -15q60 -20 60 -61z" />
    <glyph glyph-name="V" unicode="V" 
d="M1450 852q0 -51 -50 -71q-32 -13 -356 -23q-253 -8 -394 -8q-170 0 -230 52q-50 44 -50 160q0 32 5.5 127.5t5.5 159.5q0 40 -75 76q-56 21 -111 43q21 36 43 46q18 9 60 9q49 0 145 -18.5t145 -18.5q-2 0 323 8q75 2 204 33t163 31q133 0 133 -72q0 -75 -345 -75
q-50 0 -150.5 1.5t-146.5 1.5q-193 0 -237 -24l3 -426l10 -14q39 -7 150 -7q292 0 397 13q33 5 108 35q67 27 113 27q64 0 119 -30z" />
    <glyph glyph-name="W" unicode="W" 
d="M1554 839q0 -61 -153 -76q-31 -2 -197 -2q-128 0 -179 12q-110 27 -110 115v440q0 12 -54 71q-61 66 -71 84q14 -1 39 3.5t36 4.5q41 0 123 -28t127 -28q51 0 134 28t131 28q88 0 120 -23q8 -17 8 -32q0 -55 -97 -75q-44 -9 -196 -19q-122 -7 -153 -27v-435
q35 -31 105 -31q61 0 159 25.5t167 25.5q61 0 61 -61zM898 958q-45 -70 -248 -159q-193 -86 -279 -86q-45 0 -72 49q-23 40 -23 88v447q0 42 -55 69q-45 18 -91 37q39 53 101 53q37 0 109 -17.5t107 -17.5q42 0 111.5 31t92.5 31q39 0 77 -13q51 -18 51 -47q0 -71 -147 -87
q-102 -8 -205 -15l4 -460l11 -7q172 35 205 44q114 32 186 90z" />
    <glyph glyph-name="X" unicode="X" 
d="M1392 851q0 -55 -136 -76q-90 -7 -181 -14q-204 -23 -479 -23q-126 0 -170 56q-33 42 -33 148q0 19 1 63t1 69q0 8 -60 45q-67 40 -78 54q65 33 114 33q14 0 52.5 -4t70.5 -4q260 0 678 16l21 211q-45 7 -106 7q-82 0 -607 -37q-52 -4 -226 135q65 23 261 23
q109 0 275.5 -7.5t177.5 -7.5q61 0 178.5 19t175.5 19q20 0 56 -14q-23 -154 -109 -336l67 -33l-28 -77q-198 0 -414 -12q-317 -18 -346 -52v-148q0 -18 29 -46l250 1q174 0 444 55q7 2 17 2q36 0 67 -17q37 -19 37 -48z" />
    <glyph glyph-name="Y" unicode="Y" 
d="M1395 1489q-32 -85 -61 -238q-30 -156 -30 -244l9 -27q12 -13 36 -29v-42q-61 -27 -333 -35q-184 -4 -369 -8q-47 -3 -71.5 -52t-46.5 -49q-53 0 -71 270q-22 314 -37 348q-54 29 -156 79q34 52 75 52q117 0 351 -10.5t351 -10.5q39 0 110 15.5t105 15.5q68 0 138 -35z
M1190 1075q0 53 -3 161t-3 162h-590q0 -322 -2 -242q5 -197 45 -197q458 0 513 29q40 20 40 87z" />
    <glyph glyph-name="Z" unicode="Z" 
d="M1306 953q-3 -243 -90 -243q-42 0 -58 70l-622 -14q-25 -68 -27 -72q-23 -45 -56 -45q-16 0 -57 25l-9 652q-55 41 -197 96q39 51 145 51q166 0 202 -60q18 -31 23 -209h584v215q0 37 -65 76l-90 46v48h73q120 0 172 -28q74 -40 74 -154zM1148 858v260h-606v-260h606z
" />
    <glyph glyph-name="bracketleft" unicode="[" 
d="M1409 979q0 -99 -68 -167h-40l-9 69h-230q-24 -50 -75 -96q-48 47 -48 92v511q0 34 -46 62q-39 18 -78 37q25 53 68 53q117 0 156 -46q30 -36 30 -134q0 -16 -1 -55v-62h215v209q-67 48 -68 49q-33 30 -36 71h90q21 0 72 -22t68 -37v-534zM768 1434q0 -48 4 -190
q5 -121 3 -193q-3 -106 -20 -188q-13 -71 -82 -94q-26 43 -36 86h-192q-18 -56 -23 -65q-12 -23 -46 -48q-59 45 -59 102v447q0 62 -52 88q-78 39 -92 56q56 27 117 27q90 0 125 -31q27 -26 31 -87l4 -128h183l2 108q1 60 -24 86q-15 14 -81 42v51l71 9q38 0 97 -22
q70 -25 70 -56zM1277 957v209h-204v-209h204zM633 930v209h-184v-209h184z" />
    <glyph glyph-name="backslash" unicode="\" 
d="M1494 873q0 -52 -92 -67l-593 294q-130 -142 -314 -260q-221 -141 -375 -141l-18 2q205 124 409 300q275 239 290 380q-19 30 -150 110v47h91q27 0 134 -53q119 -59 119 -96q0 -22 -132 -196q54 -64 224 -111l274 -76q133 -50 133 -133z" />
    <glyph glyph-name="bracketright" unicode="]" 
d="M1522 929q0 -55 -70 -55q-33 0 -201 128q-89 70 -177 140q-383 -475 -572 -466q144 122 314 324q-10 -3 -24 -3q-41 0 -107 75q-41 53 -83 106q-199 -234 -431 -341l-56 8q133 109 273 265q190 210 190 309q0 18 -115 109q19 40 56 40q49 0 128 -42q87 -45 87 -88
q0 -60 -84 -178q95 -59 123 -82q74 -61 74 -118q0 -14 -2 -24q237 292 237 436q0 29 -115 113v39l43 3q57 4 137 -36q89 -45 89 -98q0 -80 -118 -271q34 -26 151 -81q122 -56 171 -91q82 -58 82 -121z" />
    <glyph glyph-name="asciicircum" unicode="^" 
d="M1218 1121q0 -158 -121 -260q-115 -97 -276 -97q-167 0 -288 100q-127 107 -127 271q0 139 96 223q62 54 181 93q102 33 105 45l-39 48v45h62q17 0 57.5 -27t40.5 -46q0 -14 -17 -41q204 -109 230 -131q96 -79 96 -223zM1080 1125q0 104 -79 173q-76 64 -182 64t-188 -66
q-88 -71 -88 -175q0 -101 90 -169q82 -63 186 -63q109 0 183 62q78 67 78 174z" />
    <glyph glyph-name="underscore" unicode="_" 
d="M1539 897q-20 -50 -62 -50q-6 0 -10 1l-577 175q-180 -78 -359 -157q-206 -83 -376 -105q18 31 42 51q30 25 135 72l152 66q349 174 593 422q-41 11 -72 11q-279 0 -347 -15l-169 -38q-66 0 -224 163q169 0 508 6.5t509 6.5q24 0 53 -15l18 -39q-132 -141 -174 -182
q-97 -96 -190 -163q64 -33 191 -57q152 -28 200 -45q105 -36 159 -108z" />
    <glyph glyph-name="grave" unicode="`" 
d="M1467 880l-10 -46l-50 -23q-53 15 -164 126q-65 69 -130 139q-158 -165 -229 -230q-125 -113 -261 -195l-80 -1q167 132 360 372q216 270 252 428l-17 2q-33 0 -96 -18t-95 -18q-82 0 -142 118q34 0 104.5 -4t106.5 -4q39 0 116 9.5t116 9.5q45 0 83 -8v-66
q-62 -72 -165 -313q12 -25 93 -67q101 -53 137 -83q71 -58 71 -128zM869 1005q0 -12 -17 -34t-29 -22q-29 0 -109 97l-102 130q-73 -96 -204 -202q-148 -120 -243 -144l-12 21q385 366 464 600q-87 0 -202 -26q-5 -1 -11 -1q-36 0 -76 42q-35 36 -48 72q71 0 213.5 8.5
t212.5 8.5q37 0 56 -8q1 -1 46 -29q-26 -73 -139 -241q63 -61 126 -121q74 -76 74 -151z" />
    <glyph glyph-name="a" unicode="a" 
d="M1082 1463q0 -51 -166 -51q-142 0 -206 21q-100 34 -143 138l344 -47q27 0 81 -1q90 -4 90 -60zM1466 829q0 -47 -86 -47q-114 0 -513 155q-238 -125 -333 -163q-195 -77 -359 -75q32 50 97 75q521 199 770 457q-7 4 -29 4q-203 0 -371 -25q-12 -2 -61 -15
q-42 -11 -60 -11q-59 0 -129 41q-63 38 -104 89q428 -12 459 -12q76 0 226 21t222 21q58 0 117 -19v-40q-115 -99 -350 -290q25 -11 167 -34q155 -25 224 -46q113 -36 113 -86z" />
    <glyph glyph-name="b" unicode="b" 
d="M1422 1481q-15 -21 -40 -59q-18 -32 -86 -379q-65 -335 -137 -440l-39 56q40 121 85 414l-708 -140q-17 -3 -116 37q-91 38 -118 54v39l271 -5q83 -1 342 43q271 45 323 75q7 72 22 216l-153 1q-335 2 -503 -50q-188 67 -250 165q30 -1 215 -14q133 -9 213 -5
q57 2 275 19q173 14 275 14q79 0 114 -8l2 -18z" />
    <glyph glyph-name="c" unicode="c" 
d="M1402 826q-2 -21 -33.5 -43.5t-54.5 -22.5l-856 -1q-141 0 -141 186v448q-20 17 -92 50q-51 23 -76 73q194 0 867 -10q31 -1 99.5 21t105.5 22q98 0 136 -25l9 -36q0 -59 -67 -61l-824 -20v-224h500q28 0 91.5 22.5t100.5 22.5q65 0 85 -7q32 -12 61 -60q-18 -23 -37 -46
q-24 -24 -52 -24l-753 3v-221q47 -34 100 -34h353q58 0 153 29.5t148 29.5q132 0 177 -72z" />
    <glyph glyph-name="d" unicode="d" 
d="M1405 1498q-19 -55 -133 -64h-168l-372 -15q-74 0 -212 -18q-6 -2 -27 -13q-17 -8 -28 -8q-46 0 -198 103v47q31 0 91.5 -9t89.5 -9l549 -4q47 0 121.5 31t91.5 31q178 0 195 -72zM1395 908q0 -19 -31.5 -39t-51.5 -21q-68 0 -176 1q-130 2 -171 2q-314 0 -521 -58
q-28 -8 -108 50q-67 48 -98 83l391 1q-27 19 -39 70q-13 67 -50 195q-19 45 -39 90q-22 51 -28 95q80 -35 164 -127q94 -102 94 -178q0 -35 -17 -79q-20 -51 -48 -66l263 1q21 85 43 171q26 106 25 170q-14 22 -50 56q-39 36 -53 57l94 10q33 0 105.5 -37.5t83.5 -65.5
l-147 -358q35 1 99 20t100 19q46 0 95 -13q71 -17 71 -49z" />
    <glyph glyph-name="e" unicode="e" 
d="M1056 1528q0 -62 -206 -62q-231 0 -278 147q179 -35 474 -43zM1392 1399q0 -73 -231 -73q-50 0 -146 3q-114 4 -157 5q26 -11 60 -44q-2 -18 -11 -39q66 -31 132 -63q66 -35 95 -77q37 -54 37 -144q0 -113 -96 -184q-86 -64 -200 -64q-136 0 -237 68q-115 77 -115 206
q0 123 87 186q25 18 200 95l-32 52l66 8q-239 3 -342 -37q-77 13 -200 85v46q269 -24 389 -24q34 0 122 -4q79 -3 124 -2q68 2 121 12q23 4 98 29q56 19 101 19q135 0 135 -59zM1045 997q0 74 -66 123q-60 45 -137 45q-80 0 -135 -43q-60 -47 -60 -125q0 -75 74 -126
q67 -46 146 -46q76 0 127 48t51 124z" />
    <glyph glyph-name="f" unicode="f" 
d="M989 1343q0 -97 -59 -303q-62 -219 -116 -275h-78q39 175 54 260q27 147 32 263l-83 1q-221 2 -324 -26q-11 -3 -56 -23q-34 -15 -58 -15q-28 0 -106 54q-73 50 -97 79q18 0 55 -2t55 -2h101q106 0 318.5 15t317.5 15q44 0 44 -41z" />
    <glyph glyph-name="g" unicode="g" 
d="M1038 1322q0 -104 -84 -328q-92 -243 -158 -243l-11 1q42 197 55 260q29 147 42 262q-35 0 -100.5 -12.5t-97.5 -12.5q-76 0 -144 99q41 0 112 2q81 2 112 2.5t93.5 8.5t92.5 8q40 0 81 -15zM531 1323q0 -102 -89 -323.5t-162 -294.5h-50q35 102 73 283q43 207 66 285
q-17 4 -36 4q-23 0 -69 -12t-68 -12q-91 0 -147 97q63 0 188 6t186 6q108 0 108 -39z" />
    <glyph glyph-name="h" unicode="h" 
d="M1055 1003q0 -105 -629 -105q-110 0 -152 56q-32 44 -32 140q0 24 2 77t2 80q-54 55 -151 69l-19 68l97 18q140 0 215 -68v-316q40 -31 110 -31q223 0 313 44q47 23 120 23q75 0 115 -28z" />
    <glyph glyph-name="i" unicode="i" 
d="M1047 927q0 -60 -264 -87q-155 -15 -327 -15q-108 0 -149 59q-32 44 -32 135q0 22 2 65t2 63q0 64 -16 95q-1 1 -137 72v42q60 11 121 11q56 0 167.5 -8.5t167.5 -8.5q55 0 152.5 34.5t148.5 34.5q121 0 121 -67q0 -55 -259 -83q-161 -11 -322 -23v-288q40 -36 86 -36
q99 0 235 31.5t173 31.5q130 0 130 -58z" />
    <glyph glyph-name="j" unicode="j" 
d="M1083 915q-27 -79 -226 -79q-35 0 -88.5 2.5t-65.5 2.5q-52 0 -81 79q-247 -152 -347 -152q-103 0 -103 186q0 23 1.5 72t1.5 72q0 134 -49 163q-32 19 -94 60q62 29 105 29q23 0 66.5 -11t64.5 -11q13 0 67.5 22t85.5 22q86 0 86 -57q0 -43 -90 -63l-114 -14v-286
q11 -17 36 -50q170 53 280 127v237q0 15 -43 58q-52 52 -61 66q43 0 125 -12.5t122 -12.5q26 0 78 20.5t83 20.5q43 0 89 -21l10 -24q0 -52 -112 -72q-76 -11 -153 -22v-327q16 -16 37 -16q38 0 110.5 22t115.5 22q12 0 34 -20t29 -33z" />
    <glyph glyph-name="k" unicode="k" 
d="M1041 937q0 -90 -563 -90q-137 0 -160 24q-26 25 -26 167q0 60 -51 87q-51 19 -103 38q51 45 130 45q43 0 129.5 -8.5t129.5 -8.5q203 0 276 34l6 130l-33 8q-70 0 -456 -39q-49 -5 -113 38q-53 36 -90 83q59 0 178 -5t178 -5q188 0 267 12q10 2 31 13t33 11h168l8 -32
q0 -15 -30 -102q-32 -96 -36 -117q1 -2 50 -70q-76 -45 -263 -45q-53 0 -138.5 4t-109.5 4l-22 -8q-9 -26 -9 -71q0 -69 8 -92q23 -12 95 -12q213 0 290 39q44 22 102 22q73 0 123 -50z" />
    <glyph glyph-name="l" unicode="l" 
d="M953 1412q-27 -148 -35 -186q-23 -107 -49 -182q24 -17 73 -51q-62 -59 -200 -59q-35 0 -104.5 4.5t-101.5 4.5q-84 0 -130 -23q-13 -6 -55 -67h-52q-27 74 -39 217l-20 226q-7 14 -66 44.5t-77 54.5q50 38 112 38q30 0 89 -10.5t89 -10.5q78 0 235 17.5t235 17.5
q56 0 86 -14zM782 1269q0 37 -6 64q-175 5 -224 5q-156 0 -156 -55v-130q0 -55 13 -142q71 14 180 21q90 4 180 9q13 123 13 228z" />
    <glyph glyph-name="m" unicode="m" 
d="M953 1422q0 -288 -3 -338q-16 -247 -88 -295q-38 16 -62 60h-208q-111 0 -136 -8q-30 -10 -108 -80q-52 33 -52 89v437q0 29 -66 61q-41 17 -83 34q26 55 84 55q151 0 184 -45q21 -28 23 -170l379 2v124q-30 52 -62 68l-82 34v45h90q56 0 111 -14q79 -20 79 -59zM809 934
v219h-376v-219h376z" />
    <glyph glyph-name="n" unicode="n" 
d="M1043 1428q0 -139 1 -278q-7 -191 -56 -288h-46q-11 19 -30 58q-66 -1 -143 -9q-18 -43 -34 -74h-68v479q0 50 -93 91v46h107q24 0 67 -31.5t46 -52.5q-14 -41 -14 -74q0 -21 9 -52h130v118q0 25 -44 48q-32 16 -64 31v55h50q81 0 182 -67zM555 1391v-393q0 -92 -56 -170
q-34 9 -44 30q-8 15 -8 56h-139q-12 -38 -44 -110h-63v367q0 91 -19 113q-5 6 -116 71q46 39 69 39q132 0 157 -28q22 -23 26 -150h120v86l-60 51q-30 31 -34 68l99 6q10 0 112 -36zM910 1005v165l-117 -4v-161h117zM436 1143h-117v-152h111z" />
    <glyph glyph-name="o" unicode="o" 
d="M1039 937q0 -53 -64 -53q-33 0 -387 221q-166 -183 -486 -343l-73 9q52 63 155 143q147 113 167 131q61 53 228 285q-52 45 -141 148l114 7q12 0 103 -52q95 -53 95 -68q0 -37 -103 -184q17 -14 229 -106q163 -70 163 -138z" />
    <glyph glyph-name="p" unicode="p" 
d="M1043 885q-15 -20 -35 -24q-56 29 -126 85l-118 96q-62 -76 -195 -168q-150 -104 -224 -101q26 51 80 103q50 44 99 88q-38 49 -115 105q-88 -94 -285 -220l-62 12l170 184q168 191 168 239q-29 25 -85 77v43h68q25 0 97 -38q77 -40 77 -62q0 -34 -103 -164
q69 -25 83 -32q45 -21 70 -52q40 43 106 132q76 105 80 137q-13 22 -47.5 56t-47.5 54l85 10q33 4 95 -37.5t72 -75.5q-44 -86 -62 -115q-33 -55 -78 -103q62 -33 124 -67q53 -30 109 -98v-64z" />
    <glyph glyph-name="q" unicode="q" 
d="M945 1086q0 -136 -112 -224q-104 -81 -243 -81q-146 0 -245 83q-105 88 -105 232q0 92 59 165q55 68 145 99q44 5 125 23q-9 66 -30 98h68q77 0 77 -91q0 -9 -1 -18q262 -104 262 -286zM815 1074q0 82 -74 145q-71 60 -155 60q-85 0 -145 -52t-60 -135q0 -87 62 -142
t151 -55q82 0 148 47q73 52 73 132z" />
    <glyph glyph-name="r" unicode="r" 
d="M1013 961q0 -48 -38 -48q-7 0 -16 2l-373 115q-234 -167 -507 -253l-47 15q169 115 339 230q185 133 311 269l-13 5q-67 0 -199 -27.5t-194 -27.5q-92 0 -188 122q279 -9 298 -9q68 0 202.5 18t200.5 18l92 -4l17 -46q-74 -88 -232 -254q26 -13 125 -24q106 -12 149 -26
q73 -25 73 -75z" />
    <glyph glyph-name="s" unicode="s" 
d="M1005 923q0 -82 -48 -82q-18 0 -75 71l-99 121q-92 -92 -183 -184q-117 -100 -232 -100q29 45 95 102q79 69 102 95q-35 18 -65 64q-25 39 -51 78q-142 -167 -325 -278l-58 21q184 178 215 213q112 126 155 256q-79 0 -169 -27q-63 14 -121 108l296 -7q12 -1 36.5 5.5
t36.5 6.5q13 0 37.5 -9.5t35.5 -9.5q200 0 377 14l8 -53l-132 -227q55 -35 109 -69q55 -43 55 -109zM809 1295q-97 -17 -168 -17q-23 0 -49 6q-9 -28 -40 -67q-38 -48 -47 -64q68 -38 82 -50q37 -31 41 -81q106 123 181 273z" />
    <glyph glyph-name="t" unicode="t" 
d="M802 1438q0 -60 -155 -60q-93 0 -140 23q-27 14 -113 86l-7 54q104 -16 311 -60q104 -27 104 -43zM1040 916l-9 -36q-45 -25 -58 -25q-89 0 -345 82l-252 -106q-169 -67 -254 -66l-5 24q422 204 590 382l-12 4q-142 -14 -334 -37q-33 -6 -92 44q-50 43 -72 79
q430 0 537 8q14 0 50 7q32 6 49 6q51 0 100 -36q-16 -55 -238 -237q20 -18 75 -18q15 0 48.5 1.5t51.5 1.5q128 0 170 -78z" />
    <glyph glyph-name="u" unicode="u" 
d="M1025 1428q-15 -117 -31 -234q-30 -199 -75 -324q-62 -173 -155 -216l67 368l-9 12l-553 -117q-6 -1 -12 -1q-44 0 -110.5 45t-84.5 83q28 0 83.5 -4t82.5 -4q348 0 606 88q0 35 8 88q10 69 11 88l-11 12l-1 7q-83 0 -248.5 -26t-246.5 -26q-106 0 -216 129h638q2 0 24 5
q7 1 184 16q16 4 49 11z" />
    <glyph glyph-name="v" unicode="v" 
d="M996 861q0 -61 -249 -75q-40 -2 -311 -2q-169 0 -169 134v329q0 34 -64 65q-76 36 -88 51q50 29 107 29q55 0 164 -11.5t164 -11.5q51 0 143 31t137 31q115 0 115 -56q0 -61 -73 -65q-281 -16 -470 -32v-147h193q33 0 106 25t106 25q86 0 127 -70q-64 -61 -331 -61
q-51 0 -118.5 2t-76.5 2v-155q31 -30 109 -30q88 0 201 27.5t159 27.5q119 0 119 -63z" />
    <glyph glyph-name="w" unicode="w" 
d="M1009 1331q0 -24 -51 -41q-8 -3 -38 -3q-241 -4 -300 -7q-149 -8 -288 -31q-39 -6 -183 96q55 34 73 33q161 -16 390 -20q44 0 126.5 24t125.5 24q46 0 89 -16q56 -21 56 -59zM1064 916l-3 -18l-30 -26q-147 -2 -294 -3q-180 -3 -297 -23q-12 -2 -67 -17q-45 -12 -66 -12
q-50 0 -110 43q-56 39 -85 86q152 -14 205 -14h251q18 0 64 2q41 1 65 0q3 33 22 110q17 70 17 109q0 13 -43 56q-56 56 -58 59l69 8q43 5 107 -20q71 -27 81 -64q-40 -81 -107 -249h34q5 0 51.5 17.5t74.5 17.5q119 0 119 -62zM507 1038q0 -32 -13 -64q-17 -41 -45 -41
q-19 0 -86 135q-55 108 -78 169l55 -2q99 -64 114 -77q53 -50 53 -120z" />
    <glyph glyph-name="x" unicode="x" 
d="M815 1470q0 -25 -17 -38q-29 -22 -270 -22q-11 0 -66 35q-49 31 -67 46v43q42 -7 125 -16h222q73 0 73 -48zM1046 1292q-14 0 -37 -15t-43 -17q-32 -2 -312 -4q7 -17 25 -33q-2 -17 -19 -38q144 -63 164 -77q74 -51 74 -150q0 -112 -89 -178q-81 -61 -197 -61t-200 59
q-95 66 -95 177q0 112 85 167l174 88q-13 28 -44 39l-182 -30q-37 -6 -92 30q-49 31 -74 68q56 0 168.5 -5t168.5 -5q196 0 258 16q141 37 180 37q54 0 87 -68zM774 968q0 59 -56 100q-50 38 -112 38q-66 0 -115 -35q-55 -40 -55 -103q0 -64 53 -108q50 -43 114 -43
q65 0 116 43q55 44 55 108z" />
    <glyph glyph-name="y" unicode="y" 
d="M983 1386q-176 -315 -327 -466q-74 -74 -239 -185q-182 -121 -257 -133q-15 0 -44 -1q36 54 102 102q300 217 562 600v16h-255q-23 0 -72.5 -19.5t-73.5 -19.5q-51 0 -111 44q-54 39 -84 88q155 -10 410 -10q219 0 325 18q22 -10 64 -34z" />
    <glyph glyph-name="z" unicode="z" 
d="M1003 1389q-66 -218 -207 -405q-69 -92 -213 -224q-170 -157 -243 -168l-49 -1q31 48 101 110q102 90 112 100q165 167 320 502l-3 19l-20 7q-147 -28 -216 -20q-182 -384 -475 -572l-75 20q240 242 252 257q113 136 153 308l-16 2q-27 0 -80 -13t-79 -13q-59 0 -137 106
q40 0 121 -3t121 -3q30 0 88 13.5t83 13.5q27 0 84.5 -14.5t90.5 -14.5q32 0 94 9.5t92 9.5q40 0 101 -26z" />
    <glyph glyph-name="braceleft" unicode="{" 
d="M1101 1045q-52 -94 -346 -181q-259 -77 -406 -77q-39 0 -70 44q-29 40 -29 81v424q0 46 -66 75l-108 38q23 38 48 55q197 -9 264 -57v-510q23 -19 59 -19q141 0 331 44q161 42 323 83z" />
    <glyph glyph-name="bar" unicode="|" 
d="M1059 907q-37 -98 -317 -178q-237 -66 -386 -66q-130 0 -130 345q0 66 5 149t5 84q0 34 -65 68q-46 20 -91 39q59 48 128 48q33 0 98 -11t97 -11q206 0 256 10q13 2 84 24q56 17 80 17q149 0 149 -58q0 -48 -132 -68q-68 -10 -263 -18q-160 -7 -194 -22l-7 -444l28 -24
q36 9 104 11q82 2 106 5q165 21 445 100z" />
    <glyph glyph-name="braceright" unicode="}" 
d="M1047 932q-23 -61 -162 -121q-127 -56 -202 -56q-49 0 -67 41q-7 18 -15 85q-222 -132 -319 -132q-104 0 -104 232q0 51 5.5 115t5.5 62q0 88 -18 117q-21 33 -100 57v50q62 10 66 10q30 0 84.5 -16t80.5 -16q19 0 54 16t55 16q43 0 100 -64q-38 -45 -90 -53
q-100 -17 -102 -18v-378h37q49 0 144 43q106 47 106 89v199q0 72 -17 96q-13 19 -84 59v41h78q20 0 64.5 -17t64.5 -17q28 0 82.5 18t84.5 18q85 0 85 -48t-70 -55q11 1 -104 1q-26 0 -65 -18v-400l5 -5l18 -2q98 0 252 70z" />
    <glyph glyph-name="asciitilde" unicode="~" 
d="M1021 931q-22 -87 -278 -175q-227 -78 -350 -78q-83 0 -104 95q-6 27 -11 183q-4 102 -42 112q-44 11 -87 77q83 0 247 -8t245 -8q47 0 112 31v196q-81 -3 -394 -55q-40 -7 -103 41q-53 41 -80 83l444 -2q36 0 106 13t104 13q61 0 116 -35q-30 -38 -56.5 -121.5
t-26.5 -136.5q0 -17 50 -52q-9 -58 -127 -58q-37 0 -123.5 7t-126.5 7q-73 0 -109 -18q-13 -26 -13 -65q0 -175 35 -175q127 0 290 43q59 15 282 86z" />
    <glyph glyph-name="Adieresis" unicode="&#xc4;" horiz-adv-x="1654" 
d="M1418 1543q0 -80 7 -391.5t7 -487.5q0 -368 -26 -506q-17 -90 -71 -142l-38 11q-17 22 -17 149q0 51 3 159t3 149q0 85 -9 100q-245 -50 -921 -196q-138 49 -254 119v45q37 -1 122 -14q78 -11 123 -11q236 0 346 38v177q0 15 -57 56q-74 55 -75 56q31 26 117 26
q88 0 121 -41q27 -32 27 -104q0 -21 -3 -72.5t-3 -80.5l12 -3q44 0 228 37t223 54v771q-8 32 -204 137q28 39 81 39q146 0 258 -74z" />
    <glyph glyph-name="Aring" unicode="&#xc5;" horiz-adv-x="1654" 
d="M1652 153q0 -70 -136 -70q-43 0 -112.5 7.5t-80.5 7.5q-849 0 -1048 -75q-122 31 -240 136v46l329 -29h210v60q0 140 -15 192q-24 29 -76 56q-66 34 -84 47q35 46 93 46q140 0 210 -56v-339h343v343q0 37 -132 127q21 49 66 49q167 0 219 -103q-34 -262 -34 -410
q30 3 151 32q107 25 151 25q57 0 113 -20q73 -26 73 -72z" />
    <glyph glyph-name="Ccedilla" unicode="&#xc7;" horiz-adv-x="1654" 
d="M1486 1524q0 -37 2.5 -237.5t2.5 -340.5q0 -805 -87 -934h-55v523l-75 1q-29 1 -91.5 -17t-91.5 -18q-54 0 -154 67v46h407l7 789q1 37 -102 101q-62 35 -125 71q16 31 28.5 38.5t48.5 7.5q64 0 152 -27q100 -30 133 -70zM1227 800l-422 -124l1 -324q0 -146 -40 -204h-61
q-26 103 -31 232q-1 24 -1 238l-35 30q-121 -33 -234 -56q-185 59 -248 146q10 0 26 1q20 1 27 1q38 0 114 -8t114 -8q156 0 399 42q196 37 391 74v-40z" />
    <glyph glyph-name="Eacute" unicode="&#xc9;" horiz-adv-x="1654" 
d="M1422 1324q0 -32 3 -189.5t3 -267.5q0 -665 -95 -847h-41q-24 54 -27 350q0 176 1 352q-226 -84 -501 -129l-2 -262q-11 -171 -74 -251q-32 3 -52 29v456l-263 -35q-42 -5 -136 42q-86 44 -123 81q39 20 98 20q30 0 90.5 -7t87.5 -7q143 0 450 44q331 47 432 91v633
q-26 40 -83 74q-48 27 -97 54v46h119q27 0 103 -28.5t107 -50.5v-198z" />
    <glyph glyph-name="Ntilde" unicode="&#xd1;" 
d="M1565 1546q0 -697 -21 -767q-14 -44 -65 -114q-43 22 -51 107q-1 5 -1 123h-175q0 -187 -83 -262q-60 47 -60 82v679q-19 17 -158 88v44h128q94 0 126 -30.5t33 -116.5l1 -74h188v166q0 25 -85 76q-56 31 -113 63q23 42 72 42q46 0 147 -33q117 -38 117 -73zM1419 974
v252h-169v-252h169z" />
    <glyph glyph-name="Odieresis" unicode="&#xd6;" 
d="M1613 779l-14 -33q-24 -11 -46 -12q-303 -3 -908 -23q-51 -3 -168 -30q-109 -25 -164 -25q-51 0 -128 53q-69 48 -103 97h719v153q-20 26 -65 49q-37 18 -73 36q24 27 48 42q102 -4 114 -6q64 -7 106 -36v-238l155 -2q60 -1 175.5 25.5t168.5 26.5q94 0 161 -34z" />
    <glyph glyph-name="Udieresis" unicode="&#xdc;" 
d="M1376 1530q0 -473 -2 -521q-13 -377 -75 -485h-46q1 12 -8.5 31t-9.5 29v191l-32 1l-201 -46q-7 -1 -14 -1q-76 0 -146 96q383 0 193 -2q150 2 200 21v625q-22 37 -89 73q-91 49 -106 61q74 33 81 33q48 0 144 -32q111 -38 111 -74zM1130 1026q-94 -91 -397 -133
q0 -111 -5 -148q-13 -85 -61 -131h-35q-28 40 -28 124q0 26 3 72.5t3 63.5l-2 2q-70 -20 -140 -39q-94 -26 -141 -26q-59 0 -131 42t-98 94l165 -2q264 -3 408 9q230 19 398 82z" />
    <glyph glyph-name="aacute" unicode="&#xe1;" 
d="M1292 1512q0 -25 2 -146t2 -205q0 -536 -84 -622h-31q-15 48 -20 107q-3 43 -1 109q3 98 3 110l-8 4q-97 -33 -408 -101q-262 -56 -397 -119q-72 8 -147 48q-79 41 -120 97q58 0 176 -3t177 -3q97 0 367 51q281 53 360 91v495q0 35 -85 82q-54 26 -107 51l14 33
q26 12 64 12q183 0 243 -91z" />
    <glyph glyph-name="agrave" unicode="&#xe0;" 
d="M1615 824q0 -64 -382 -51l-93 3q-271 9 -530 -5q-44 -3 -142 -32q-93 -29 -127 -29q-41 0 -128 40q-75 33 -122 66v45q48 0 144.5 -13t145.5 -13q68 0 226 -4t241 -4q273 0 438 36q16 3 139 43q190 0 190 -82z" />
    <glyph glyph-name="acircumflex" unicode="&#xe2;" 
d="M1376 1531q0 -35 2 -145.5t2 -178.5q0 -433 -84 -569h-42q-29 78 -29 338q0 103 5 274.5t5 209.5q-38 39 -219 140q56 29 69 29q63 0 164 -25q127 -31 127 -73z" />
    <glyph glyph-name="adieresis" unicode="&#xe4;" horiz-adv-x="1654" 
d="M1318 544q-14 -52 -19 -190q-5 -150 -17 -216q-22 -115 -81 -169q-47 35 -47 78v434l-159 1q-92 0 -239 -19q-120 -15 -240 -31q-53 -5 -120.5 32t-94.5 85q100 0 301 -4t302 -4q56 0 163.5 15t160.5 15q37 0 90 -27z" />
    <glyph glyph-name="atilde" unicode="&#xe3;" horiz-adv-x="1654" 
d="M949 835q0 -50 -37.5 -81.5t-88.5 -31.5q-52 0 -85 36.5t-33 89.5q0 51 40 84q37 32 88 32q50 0 83 -39.5t33 -89.5z" />
    <glyph glyph-name="aring" unicode="&#xe5;" horiz-adv-x="1654" 
d="M1392 596q-6 -27 -13 -336q-6 -238 -70 -325h-51q-17 59 -17 76v511l-71 1q-33 1 -94.5 -16t-89.5 -17q-57 0 -140 91h246q33 1 107 13q70 12 108 12q62 0 85 -10zM846 600q-1 -16 -14 -60q-11 -39 -11 -57l1 -241q1 -172 -79 -284q-48 33 -48 67v497l-72 1
q-33 1 -106.5 -20t-105.5 -21q-82 0 -167 107h78q17 0 140 -12q4 -1 104 33q48 -10 280 -10z" />
    <glyph glyph-name="ccedilla" unicode="&#xe7;" horiz-adv-x="1654" 
d="M1556 118l-6 -31q-29 -47 -379 -47q-130 0 -325 7t-209 7q-203 0 -203 184q0 25 3.5 75t3.5 73q0 98 -59 122q-54 19 -161 61q40 35 81 44q24 5 93 5q134 0 197 -38v-408q54 -44 168 -44h158q102 0 247 36t215 36q176 0 176 -82z" />
    <glyph glyph-name="eacute" unicode="&#xe9;" horiz-adv-x="1654" 
d="M1320 562q-70 -28 -226 -28q-138 0 -201 127q201 -26 427 -36v-63zM1563 459q0 -22 -14 -42q-39 -15 -337 -18l16 -26l-12 -23q131 -62 157 -84q67 -54 67 -152q0 -109 -83 -177q-77 -64 -188 -64q-135 0 -204 73q-61 64 -83 202q-236 -137 -400 -137q-29 0 -50.5 22.5
t-21.5 52.5q0 89 5.5 179t5.5 100q0 51 -33 71q-72 35 -144 69q14 15 46 40l244 -19q0 -58 -5.5 -173.5t-5.5 -172.5q0 -26 8.5 -36t38.5 -10q76 0 284 64l40 -14q30 65 80 101q27 20 82 42q45 17 57 34q0 39 -38 39q-29 0 -87 -10.5t-88 -10.5q-114 0 -203 63v37
q181 -19 327 -19q83 0 236 30.5t184 30.5q39 0 73 -13q46 -17 46 -49zM1328 123q0 63 -51 105q-47 39 -111 39q-61 0 -110 -42.5t-49 -102.5q0 -61 51 -103q47 -40 110 -40q60 0 110 42.5t50 101.5z" />
    <glyph glyph-name="egrave" unicode="&#xe8;" horiz-adv-x="1654" 
d="M1527 571q0 -27 -25 -45q-62 -16 -157 -18q-80 -1 -159 -2q58 -33 64 -67l-37 -90q307 -210 307 -340q0 -8 -4.5 -25.5t-4.5 -25.5l-35 -12q-32 0 -152 151q-76 97 -152 195q-316 -400 -534 -390q453 369 453 542q0 14 -14.5 37t-26.5 23q-31 0 -93 -15t-92 -15
q-68 0 -178 71v45q209 -23 337 -23q121 0 377 57q16 4 35 4q91 0 91 -57zM898 245q-63 -74 -213 -143.5t-249 -69.5q-87 0 -87 106v310q0 32 -76 67l-92 34q26 18 48 38l33 2h107q109 0 109 -79l1 -337l25 -14q50 0 184 43t128 43h82z" />
    <glyph glyph-name="ecircumflex" unicode="&#xea;" horiz-adv-x="1654" 
d="M1478 71q0 -67 -75 -67l-824 -1q-180 0 -180 237q0 34 3.5 96t3.5 86q0 26 -85 69q-110 58 -115 61q81 45 121 41q248 -28 372 -28q96 0 281 23.5t264 23.5q28 0 75 -3q54 -4 74 -5q1 -5 6 -24q5 -15 5 -22q0 -53 -93 -59q-112 -7 -345 -3q-228 4 -346 -5
q-54 -5 -54 -296q0 -58 39 -101q47 -13 216 -13h167q58 0 164 28.5t163 28.5q77 0 101 -5q62 -13 62 -62z" />
    <glyph glyph-name="edieresis" unicode="&#xeb;" horiz-adv-x="1654" 
d="M1368 81q0 -51 -55 -51h-713q-111 0 -111 106q0 14 2 46.5t2 49.5l-4 12q-23 19 -69 35q-60 22 -73 28q41 40 106 40q52 0 154.5 -9.5t154.5 -9.5q267 0 311 32q2 18 18 76q13 47 12 76l-136 1q-124 1 -325 -16q-21 -2 -59.5 -19t-49.5 -17q-102 0 -192 108q460 0 643 11
q22 1 88 9q55 7 87 7q50 0 93 -22q-16 -50 -64 -216q33 -12 68 -60q-42 -32 -217 -32q-40 0 -122 2t-120 2q-122 0 -169 -15q-10 -16 -10 -53q0 -83 7 -98l24 -7h389q30 0 94 25.5t97 25.5q139 0 139 -67z" />
    <glyph glyph-name="iacute" unicode="&#xed;" horiz-adv-x="1654" 
d="M1506 581q-56 -128 -102 -442q52 -14 84 -38v-51l-393 -4q-15 -47 -62 -123q-69 49 -70 321v66q0 210 -47 228q-57 22 -90 76q49 0 146 -11.5t143 -11.5q49 0 141.5 16.5t133.5 16.5q3 0 102 -10zM914 186q-38 -75 -206 -145q-152 -62 -244 -62q-87 0 -87 140
q0 20 2 53.5t2 44.5q0 50 -45 77q-47 20 -93 40q44 44 102 44q36 0 106.5 -14.5t106.5 -14.5q75 0 123 30v168h-56q19 0 -184 -42q-5 -1 -11 -1q-38 0 -98 37q-55 34 -80 65h285q29 0 87 14.5t85 14.5q72 0 107 -16v-8l11 -10l-59 -216q22 -13 65 -47q-71 -46 -173 -46
q-22 0 -72.5 2.5t-80.5 2.5v-200l28 -4q58 0 200 39q89 27 179 54zM1331 529h-156q-53 0 -82 -27v-380q22 0 108 5q67 4 108 0z" />
    <glyph glyph-name="igrave" unicode="&#xec;" horiz-adv-x="1654" 
d="M1351 630q0 -603 -83 -716h-40q-29 99 -29 283q0 66 4.5 186.5t4.5 167.5q-13 8 -26 8q-38 0 -112 -18t-107 -18q-80 0 -144 93h267q31 0 92.5 13.5t91.5 13.5zM914 172q-55 -84 -237 -159q-168 -70 -276 -70q-56 0 -70 82q-2 15 -6 157q-2 91 -31 104q-33 11 -96 33
q36 55 98 55q36 0 106.5 -13.5t106.5 -13.5q82 0 110 22q22 16 22 60q0 8 -1 27v31q0 41 8 76q-19 4 -60 4q-80 0 -224 -33q-6 -1 -12 -1q-35 0 -85 33q-43 28 -67 58l587 17q0 -30 -61 -255q2 -2 57 -39q-28 -51 -152 -60q2 0 -182 0v-215q29 -12 39 -12q73 0 426 112z" />
    <glyph glyph-name="icircumflex" unicode="&#xee;" horiz-adv-x="1654" 
d="M1359 608v-346q-10 -247 -57 -321h-48q-9 36 -21 107h-228q-29 -77 -62 -117q-54 27 -54 168q0 33 3.5 91t3.5 77q0 135 -1 146q-8 99 -50 127q-31 20 -83 69l76 11q84 0 113 -12q51 -20 51 -86v-105h231v119q-43 31 -124 97q29 31 61 31q68 0 189 -56zM846 132
q-55 -52 -196 -112q-144 -61 -216 -61q-96 0 -96 204v49q1 29 1 36q-13 13 -135 68q56 42 105 42q34 0 101 -14t100 -14q75 0 95 26q16 20 16 94q1 37 6 64q-20 7 -68 7q-33 0 -99.5 -11t-99.5 -11q-45 0 -137 51v52l435 2q39 0 110 -21q-30 -84 -61 -224l57 -14v-56
q-62 -4 -128 -4h-40h-34q-74 0 -87.5 -25.5t-13.5 -149.5q0 -16 4 -30q19 -4 33 -4q69 0 176 35q86 29 172 59v-38zM1225 113v223h-215v-223h215z" />
    <glyph glyph-name="idieresis" unicode="&#xef;" horiz-adv-x="1654" 
d="M1463 58q0 -64 -42 -64q-30 0 -101 98l-167 231q-97 -113 -195 -226q-116 -116 -250 -154q189 213 237 276q162 209 162 316q0 13 -103 88v35l45 8q49 0 122 -27q85 -32 85 -70q0 -30 -26 -84q-34 -69 -38 -82l164 -162q107 -112 107 -183zM914 182q-63 -60 -199.5 -115
t-220.5 -55q-100 0 -100 69q0 11 2 40.5t2 48.5q0 92 -124 139v47h395l2 48l-2 98q-139 0 -168 -7q-88 -21 -86 -21q-87 0 -161 95l538 9q17 -19 12 -32q-56 -140 -56 -172q7 -23 79 -42q-48 -46 -124 -46q-15 0 -49 2t-53 2q-64 0 -82 -42q-9 -22 -9 -100q0 -15 3 -35
q16 -4 28 -4q69 0 186 29q152 38 187 44z" />
    <glyph glyph-name="ntilde" unicode="&#xf1;" horiz-adv-x="1654" 
d="M1446 528q-17 -5 -49 -19q-114 6 -438 -24q-69 -7 -140 88q20 0 353 8q25 0 79 9.5t80 9.5q47 0 115 -20v-52zM1091 227q0 -100 -55 -100q-30 0 -83 144q-50 135 -50 180q72 -30 126 -88q62 -66 62 -136zM1525 67q0 -46 -85 -46q-15 0 -45.5 6t-44.5 6q-92 2 -274 -2
q-25 -2 -84 -16q-55 -13 -83 -13q-71 0 -150 94q-145 -104 -269 -104q-60 0 -74 73q-4 20 -4 120q0 74 -41 91q-60 24 -80 60q70 13 111 13q33 0 98 -8.5t98 -8.5q55 0 81 33v127q-38 0 -114.5 -8t-113.5 -8q-53 0 -87 23q-24 16 -64 66q75 0 225.5 5t224.5 5q22 0 70 -13
q-22 -68 -61 -203q25 -18 68 -44q-52 -47 -135 -47q-20 0 -66.5 3.5t-73.5 3.5q-21 -30 -21 -142q0 -26 31 -26q50 0 128 23q62 19 123 39l14 -22q-38 -30 -66 -50q58 0 182 -4q121 -4 182 -4q31 0 50 8q52 157 52 268q0 20 -35 59l-52 54h93q33 0 76.5 -28.5t52.5 -61.5
l-103 -283h-9q5 -2 14 -2q20 0 65.5 12.5t70.5 12.5q125 0 125 -61z" />
    <glyph glyph-name="oacute" unicode="&#xf3;" horiz-adv-x="1654" 
d="M1312 563q-59 -139 -102 -398q52 -19 91 -49q-31 -29 -72 -41q-281 -4 -632 -8q-17 -37 -56 -105h-60q-3 26 -15 263q-9 183 -29 245q-10 8 -76 48q-39 24 -66 63q531 -17 887 27q20 2 57 -2q48 -6 57 -6q11 -19 16 -37zM1119 373q0 94 -13 127h-67q23 0 -229 -7
q-169 -4 -218 5v-356h381q19 0 63 12.5t68 12.5q15 130 15 206z" />
    <glyph glyph-name="ograve" unicode="&#xf2;" horiz-adv-x="1654" 
d="M1237 607q-47 -56 -136 -55h-49q-147 0 -197 108l134 -1q199 0 215 -17zM1461 433q-3 0 -167 -6q-135 -5 -164 -1q9 -24 3 -39q106 -37 150 -73q67 -54 67 -146q0 -97 -83 -155q-74 -50 -175 -50q-96 0 -171 47q-83 54 -93 142q-58 -48 -198 -101t-210 -53q-95 0 -95 122
v31q1 22 1 32q0 45 -10 66q-6 12 -57 35q-65 30 -68 31q41 45 94 45q34 0 101.5 -8.5t101.5 -8.5h76q19 0 55 19v138q-145 0 -283 -24q-72 -13 -150 91q85 0 255.5 9t245.5 9q63 0 63 -39q0 -8 -12 -46l219 -16q16 -1 33 -1q59 0 357 52q37 7 114 -31v-71zM1241 183
q0 49 -51 82q-46 28 -98 28q-54 0 -96 -28q-49 -32 -49 -83q0 -56 47 -89q41 -29 99 -29q50 0 97 34q51 36 51 85zM1049 401l-7 16q-15 9 -34 9q-24 0 -73 -8t-73 -8q-86 0 -134 62q-24 -74 -27 -99q5 -11 29 -22l36 -18q-30 -49 -61 -49l-238 -1q-28 -25 -28 -71
q0 -76 6 -101q21 -4 50 -4q50 0 148 23t147 45l38 -17q-1 8 -1 16q0 84 68 142q59 52 147 66z" />
    <glyph glyph-name="ocircumflex" unicode="&#xf4;" horiz-adv-x="1654" 
d="M1237 588q0 -532 -19 -567q-23 -42 -54 -69h-55l2 46q-1 18 -2 54l-519 9q-37 -72 -67 -109h-32q-26 71 -29 253q-2 59 3 128q5 75 5 88q0 55 -28 83t-118 60q25 52 82 52q137 0 163 -34q19 -24 19 -167h519v108q-38 43 -142 80v34q46 23 73 23q141 0 199 -72zM1097 134
v198h-503v-198h503z" />
    <glyph glyph-name="odieresis" unicode="&#xf6;" horiz-adv-x="1654" 
d="M1472 3l-88 2l-482 338q-111 -111 -294 -227q-223 -141 -345 -141q-18 0 -34 4l-6 24q162 80 344 208q238 168 260 265q-16 38 -121 101v45h51q56 0 141 -38q97 -43 97 -89q0 -17 -46 -88q30 -19 275 -145q166 -86 248 -180v-79z" />
    <glyph glyph-name="otilde" unicode="&#xf5;" horiz-adv-x="1654" 
d="M1471 40l-7 -37h-59l-257 306q-282 -364 -382 -355v25q105 137 210 273q133 188 133 302q-29 45 -107 81v46h42q44 0 120 -32q86 -35 86 -70q0 -51 -66 -193q30 -43 112 -102q90 -65 119 -99q56 -63 56 -145zM822 345q0 -218 -65 -352h-51q-14 57 -11 77h-250
q-7 -72 -55 -139q-51 35 -51 69v420q0 26 -50 55l-74 38v46h122q-2 0 35 -11q73 -20 82 -33q6 -9 9 -88l1 -28l227 -5l5 29q0 88 -21 114q-17 23 -107 62q24 34 24 35q11 9 40 9q120 0 160 -42q32 -34 32 -126q0 -17 -1 -60.5t-1 -69.5zM689 144v172h-225q2 -48 2 -60
q0 -7 -1.5 -21t-1.5 -21v-35q1 -22 1 -35h225z" />
    <glyph glyph-name="uacute" unicode="&#xfa;" horiz-adv-x="1654" 
d="M1021 565q0 -54 -108 -54q-16 0 -51 2t-53 2q-15 0 -50 -1q-30 -1 -46 -1q-73 0 -113 20q-50 26 -85 97l499 -27q0 -8 3.5 -20.5t3.5 -17.5zM1343 423l-34 -45l-459 -16q15 -19 26 -41l-13 -26q120 -56 241 -112q139 -67 208 -163l2 -62l-69 2l-428 276
q-109 -115 -286 -202q-188 -93 -334 -93l-5 25q528 244 528 371q-22 26 -66 26q-43 0 -127 -17t-112 -17q-92 0 -199 101q46 14 71 14q47 0 141 -8t141 -8q291 0 402 16q21 4 100 24q65 18 98 18q119 0 174 -63z" />
    <glyph glyph-name="ugrave" unicode="&#xf9;" horiz-adv-x="1654" 
d="M1383 537q0 -55 -218 -55q-69 0 -173.5 6t-113.5 6q0 -1 7 -45q5 -27 -2 -43q135 -81 271 -161q202 -128 202 -186q0 -52 -45 -52q-27 0 -221 148l-244 188q-129 -135 -288 -238q-202 -130 -336 -122q153 113 306 225q232 183 232 252l-19 27q-34 10 -57 10
q-40 0 -115.5 -20.5t-106.5 -20.5q-101 0 -193 111q108 0 327.5 -5t328.5 -5q54 0 147.5 24.5t132.5 24.5q178 0 178 -69z" />
    <glyph glyph-name="ucircumflex" unicode="&#xfb;" horiz-adv-x="1654" 
d="M1357 574q-10 -52 -18 -213q-8 -171 -20 -248q-21 -130 -71 -172h-46v375l-43 1l-688 -120q-7 -1 -15 -1q-51 0 -118 39.5t-93 80.5q789 0 953 67v125l-133 1q-60 0 -219 -9q-171 -10 -205 -18q-11 -3 -53 -21q-33 -14 -55 -14q-61 0 -127.5 36t-100.5 88
q198 -19 366 -19h123q81 0 246.5 22t248.5 22q7 0 68 -22z" />
    <glyph glyph-name="udieresis" unicode="&#xfc;" horiz-adv-x="1654" 
d="M1386 61q0 -53 -62 -53l-743 -1q-152 0 -152 224q0 44 6 116t6 91q0 41 -65 81q-52 27 -103 54q45 43 103 43q67 0 202.5 -20.5t205.5 -20.5q66 0 189.5 22.5t185.5 22.5q71 0 135 -43v-42q-17 -9 -56 -20q-179 -1 -357 -2q-284 -5 -311 -49v-144h382q2 0 71.5 23
t108.5 23q62 0 78 -6q22 -9 52 -53q-41 -46 -87 -46l-605 -1v-133q0 -27 28 -51h428q27 0 96 27t109 27q155 0 155 -69z" />
    <glyph glyph-name="dagger" unicode="&#x2020;" 
d="M1012 786q0 -43 -62 -43q-32 0 -288 271q-122 -121 -234 -196q-102 -68 -269 -144l-69 10q277 216 342 274q192 172 281 334l-166 1l-197 -40q-5 -1 -10 -1q-40 0 -96 49q-47 40 -71 81l489 -2q20 0 60.5 10t61.5 10q38 0 134 -35q-52 -120 -192 -286q130 -84 178 -124
q108 -92 108 -169z" />
    <glyph glyph-name="degree" unicode="&#xb0;" 
d="M1048 1023q0 -48 -43 -48q-23 0 -130 72q-88 60 -131 94q-64 -94 -167 -168q-118 -85 -215 -84q20 39 174 179q-63 63 -125 92q-207 -217 -301 -217q-19 0 -45 8q96 89 192 199q136 155 136 211q0 6 -45 52l-54 56q6 1 29 14q19 10 29 10q35 0 111 -37q82 -40 82 -69
q0 -23 -29 -72q-22 -34 -44 -69q18 -13 71 -33q41 -16 76 -57q150 168 172 255q-10 19 -49 57q-36 35 -49 66h91q29 0 86 -39q62 -44 62 -79q0 -41 -43 -110q-38 -62 -75 -95q75 -32 151 -64q83 -47 83 -124z" />
    <glyph glyph-name="cent" unicode="&#xa2;" 
d="M1406 1563l-96 -344q-76 -236 -172 -284v106l27 70q14 38 30 148l-5 12l-657 -147q-57 24 -115 47q-66 30 -108 62v37q23 0 68.5 -6.5t67.5 -6.5q101 0 402 39q327 41 360 70l14 133q-152 -4 -481 -32q-21 -2 -72 -16q-47 -13 -72 -13q-48 0 -142.5 51.5t-119.5 92.5
q104 0 314.5 -4t315.5 -4q138 0 335 33q30 5 61 -6q35 -12 45 -38z" />
    <glyph glyph-name="sterling" unicode="&#xa3;" 
d="M1331 1575q-76 -76 -330 -76q-48 0 -138.5 3t-128.5 3q-136 0 -172 -29v-22q0 -107 2 -96h431q27 0 86 21t93 21q126 0 126 -72l-8 -22q-30 -26 -339 -32q-194 -1 -388 -1l-4 -24q0 -70 12 -109q19 -9 35 -9h381q31 0 99.5 20t104.5 20q64 0 82 -4q49 -11 49 -52
q0 -22 -18.5 -41.5t-40.5 -20.5q-54 0 -332 -3q-202 -2 -331 -2q-113 0 -155 42q-36 36 -36 120q0 30 6.5 116t6.5 143q0 23 -67 56q-81 39 -93 52q50 34 96 34t138 -14.5t139 -14.5q299 0 357 11q193 37 257 37q19 0 42 -9z" />
    <glyph glyph-name="section" unicode="&#xa7;" 
d="M1030 1520q-73 -262 -74 -266q-57 -167 -133 -228q0 87 19 217q30 206 31 214q-26 10 -45 10q6 0 -154 -23q-42 -5 -117 121q95 -14 228 -14q27 0 81 8.5t80 8.5q4 0 75 -14zM543 1540q-47 -187 -86 -285q-71 -179 -163 -235l96 433l-4 4q-25 0 -75.5 -6t-75.5 -6
q-54 0 -86 29q-22 19 -54 74z" />
    <glyph glyph-name="paragraph" unicode="&#xb6;" 
d="M1052 1083q0 -42 -40 -49q-158 -28 -515 -28q-129 0 -178 62q-38 48 -38 157q0 29 3.5 97t3.5 105q-21 21 -71.5 48.5t-73.5 48.5q53 27 111 27q61 0 184.5 -13.5t185.5 -13.5q50 0 134 25t131 25q43 0 85 -17q54 -21 54 -56q0 -22 -14 -40q-15 -21 -36 -21l-536 -1
l-17 -23v-97h293q23 0 76 17.5t83 17.5q126 0 126 -50q0 -23 -30 -43.5t-53 -21.5l-495 -6v-122q32 -25 69 -25q121 0 217 15q28 4 104 30q63 20 108 20q129 0 129 -68z" />
    <glyph glyph-name="germandbls" unicode="&#xdf;" 
d="M1639 933q0 -55 -92 -55q-25 0 -65 4.5t-48 4.5h-258q0 -145 -7 -183q-15 -89 -79 -164q-29 9 -50 25v316l-322 -2q0 -104 -8 -146q-14 -77 -66 -126h-41q-19 65 -19 259q-37 8 -46 8q-72 0 -119 -13q-25 -6 -117 -42q-191 37 -253 145q166 0 498 -4.5t498 -4.5
q80 0 225 26t197 26q172 0 172 -74z" />
    <glyph glyph-name="registered" unicode="&#xae;" 
d="M1022 1554v-363q0 -102 -55 -199h-37q-22 54 -40 60h-30q-73 0 -92 -6l-36 -78h-69v463q0 50 -89 89v45h103q39 0 80 -43q19 -19 23 -49q4 -20 1 -56q-3 -45 -3 -55h130v115q-21 35 -107 84v46h49q77 0 172 -53zM558 1505l-1 -379q0 -84 -57 -164h-31q-15 35 -19 74
q-51 9 -83 9q-43 0 -54 -10q-14 -50 -33 -99h-69q0 1 3 84t3 146q0 227 -35 247l-101 57q32 32 83 32q175 0 175 -80q0 -16 -3 -42q-4 -31 -5 -42h103l7 48q0 55 -36 85l-76 62l116 7q42 0 113 -35zM900 1133v163h-113v-163h113zM432 1117v155h-105v-155h105z" />
    <glyph glyph-name="copyright" unicode="&#xa9;" 
d="M1023 1113q0 -52 -246 -75q-147 -14 -305 -14q-116 0 -157 47q-33 36 -33 122q0 19 2 62t2 67q0 35 -60 61q-46 20 -93 40q38 48 93 48q41 0 121.5 -14t121.5 -14q212 0 293 39q46 22 101 22q33 0 67 -19q40 -22 40 -53q0 -53 -242 -66q-287 -14 -306 -22l-7 -215
q43 -27 73 -27q125 0 204 16q28 6 210 59q7 2 16 2q60 0 105 -66z" />
    <glyph glyph-name="trademark" unicode="&#x2122;" 
d="M1317 1567q0 -22 2 -91t2 -111q0 -309 -102 -374q-46 44 -39 72h-608q-30 -75 -88 -106q-40 43 -40 150q0 30 3.5 86.5t3.5 79.5q0 124 -4 148q-7 37 -42 59l-124 66q20 41 39 48q9 3 67 3q118 0 147 -20q40 -27 43 -136l1 -35h604v88q0 42 -138 98l-10 46l63 10
q43 0 117 -18q103 -25 103 -63zM1174 1139v190h-588v-190h588z" />
    <glyph glyph-name="acute" unicode="&#xb4;" 
d="M786 1532q6 -43 -107 -43q-134 0 -184 21q-74 30 -114 135q251 -46 396 -46zM1034 1075q0 -46 -79 -46q-29 0 -340 103q-39 -26 -224 -99q-189 -75 -224 -75l-67 7l-4 24q375 155 590 349q-21 8 -43 8q-54 0 -162 -17t-160 -17q-45 0 -104 41q-54 37 -80 80
q251 -17 461 -17q34 0 101.5 13.5t97.5 13.5q2 0 120 -19q-39 -111 -213 -234l194 -26q136 -20 136 -89z" />
    <glyph glyph-name="dieresis" unicode="&#xa8;" 
d="M1044 1112q0 -94 -591 -94q-128 0 -177 34q-42 29 -48 104l-4 180v5q-24 22 -76 42q-57 22 -78 37q52 40 77 40q137 0 222 -39l-13 -283q52 -28 118 -28q225 0 321 47q47 24 104 24q43 0 87 -15q58 -20 58 -54z" />
    <glyph glyph-name="AE" unicode="&#xc6;" horiz-adv-x="1654" 
d="M1636 621q0 -52 -102 -52q-37 0 -93.5 7.5t-61.5 7.5l-439 -1q0 -19 2 -88.5t2 -114.5q0 -297 -75 -399h-52v592q-94 5 -134 5q-63 0 -180.5 -29.5t-163.5 -29.5q-42 0 -124 38q-70 33 -117 66v47l239 -29h521q224 0 360 19q24 3 103 23q68 18 102 18q58 0 123 -17
q90 -23 90 -63z" />
    <glyph glyph-name="Oslash" unicode="&#xd8;" 
d="M1527 993q0 -257 -68 -377l-35 1l-16 13q-12 33 -15 81q-1 33 2 89q4 65 4 85h-176q0 -197 -81 -283q-38 37 -47 99q-4 29 -1 112l-3 2l-695 -215q-31 -10 -222 89v48q81 -7 142 -7q163 0 278 31q6 13 6 37q0 86 -11 100l-119 59q56 32 109 32q93 0 125.5 -17.5
t32.5 -65.5q0 -24 -16 -124l190 38q115 26 184 59v459q0 38 -166 105v48h127q5 0 78 -26q79 -28 89 -31v-472h176v466q-33 29 -99 62q-72 37 -100 57l33 37l37 3q45 3 131 -24q79 -24 126 -52v-518z" />
    <glyph glyph-name="plusminus" unicode="&#xb1;" 
d="M928 1268q0 -122 -89 -204t-212 -82q-126 0 -214 77q-92 80 -92 205t88 188q94 54 187 107q-13 22 -8 54h54q50 -29 50 -57q0 -10 -3 -23q146 -77 171 -98q68 -59 68 -167zM803 1257q0 71 -52 124.5t-122 53.5q-72 0 -127.5 -50t-55.5 -121t56 -120q53 -46 125 -46
t124 44.5t52 114.5z" />
    <glyph glyph-name="yen" unicode="&#xa5;" 
d="M1057 1636q0 -54 -226 -61l-26 -1q-187 -6 -256 120h124q30 0 102 -4l214 -12q68 -4 68 -42zM1419 1509q0 -58 -47 -58h-455l-13 -9l-10 -39q98 -1 182 -46q101 -55 101 -145q0 -107 -119 -160q-90 -40 -212 -40q-123 0 -216 39q-125 53 -125 159q0 79 52 120
q34 27 118 52q91 27 124 48l-11 14q-128 -7 -387 -31q-71 -9 -208 111q106 0 318.5 -5t318.5 -5q74 0 216.5 21.5t211.5 21.5q161 0 161 -48zM1051 1211q0 55 -82 90q-66 29 -130 29q-69 0 -123 -23q-73 -30 -73 -91q0 -59 76 -94q60 -28 127 -28q70 0 129 25q76 32 76 92z
" />
    <glyph glyph-name="mu" unicode="&#xb5;" 
d="M1056 1481q-36 -146 -72 -291q-54 -200 -123 -239q-25 39 -25 72q0 31 13 97.5t13 100.5l-9 5l-536 -121q-8 -2 -16 -2q-44 0 -99 45q-45 36 -73 78q337 0 733 80q3 31 12 94q-31 17 -43 17q-73 0 -219 -33t-214 -33q-108 0 -192 130q260 2 366 5q199 6 364 22
q60 6 120 -27z" />
    <glyph glyph-name="mu" unicode="&#x3bc;" 
d="M1056 1481q-36 -146 -72 -291q-54 -200 -123 -239q-25 39 -25 72q0 31 13 97.5t13 100.5l-9 5l-536 -121q-8 -2 -16 -2q-44 0 -99 45q-45 36 -73 78q337 0 733 80q3 31 12 94q-31 17 -43 17q-73 0 -219 -33t-214 -33q-108 0 -192 130q260 2 366 5q199 6 364 22
q60 6 120 -27z" />
    <glyph glyph-name="ordfeminine" unicode="&#xaa;" 
d="M1092 1102q0 -66 -136 -66q-22 0 -70 -2.5t-73 -2.5q-149 0 -202 85q-237 -148 -348 -148q-83 0 -83 186q0 30 2.5 70t2.5 44q0 84 -27 113q-20 20 -108 49q30 55 83 55q28 0 81.5 -12.5t81.5 -12.5q22 0 63.5 15.5t67.5 15.5q101 0 101 -68q0 -42 -112.5 -48.5
t-112.5 -46.5v-189q0 -37 32 -37q40 0 139 35.5t134 61.5v187q0 24 -44 61l-60 46q59 27 80 27q26 0 82 -14.5t85 -14.5q34 0 95.5 17.5t96.5 17.5q63 0 122 -58q-54 -65 -164 -65q-12 0 -60 2q-38 1 -62 0l-39 -2l-6 -284h111q-3 0 52 27t91 27q27 0 65.5 -22.5t38.5 -48.5
z" />
    <glyph glyph-name="ordmasculine" unicode="&#xba;" horiz-adv-x="620" 
d="M535 1552q0 -53 3 -266t3 -352q0 -757 -74 -937h-61v789h-188q0 5 3.5 -73.5t3.5 -146.5q0 -370 -99 -412q-46 36 -46 520q0 174 6.5 428t6.5 268q0 23 -71 66q-49 28 -99 56l43 35q24 5 52 5q199 0 199 -104l1 -565h184v608q0 48 -196 138q50 39 85 39q167 0 244 -96z
" />
    <glyph glyph-name="ae" unicode="&#xe6;" horiz-adv-x="1654" 
d="M1579 -16q0 -3 -5.5 -18t-5.5 -21h-66l-284 371q-155 -212 -427 -394l-40 -2v46q109 89 243 254q162 200 162 289q-26 46 -140 99v56h97q35 0 113 -41q85 -44 85 -76q0 -19 -23 -75l-32 -74q-1 -3 13 -19q36 -43 202 -187q108 -94 108 -208zM798 603q-34 -112 -38 -207
q2 42 2 -232q0 -69 -16 -140q-22 -104 -65 -104q-46 0 -46 64v553l-4 2q-52 0 -152.5 -24t-144.5 -24q-33 0 -143 59v38q128 11 255 23q156 14 256 14q35 0 96 -22z" />
    <glyph glyph-name="oslash" unicode="&#xf8;" horiz-adv-x="1654" 
d="M1176 279q0 -134 -109 -211q-97 -68 -236 -68q-143 0 -240 68q-109 78 -109 216q0 120 69 182q44 40 138 64q90 24 104 39q-17 40 -17 76h39q32 0 59 -17.5t27 -45.5q0 -12 -6 -24q177 -88 193 -100q88 -65 88 -179zM1045 291q0 83 -67 131q-61 44 -147 44
q-91 0 -151 -44q-67 -48 -67 -136q0 -78 71 -130q65 -49 145 -49q83 0 147 50q69 54 69 134z" />
    <glyph glyph-name="questiondown" unicode="&#xbf;" horiz-adv-x="620" 
d="M557 1513q0 -1356 -82 -1501h-52q-32 48 -32 336q0 104 4.5 264t4.5 180l-172 1l-146 -33q-32 -8 -148 55l9 50l450 12v279q-55 1 -158 -14q-106 -15 -153 -15q-11 0 -146 58v45h462q6 204 6 196q0 67 -74 114q-67 33 -133 67v45h72q88 0 174 -30q114 -39 114 -109z" />
    <glyph glyph-name="exclamdown" unicode="&#xa1;" 
d="M1067 1569q0 -46 -82 -46q-23 0 -77 2q-49 2 -77 1q-93 -1 -131 17q-42 21 -93 99q42 0 112 -8q86 -10 113 -12q64 1 190 -11q45 -9 45 -42zM1477 1118q0 -50 -63 -50q-149 0 -527 93q-412 -151 -572 -151l-71 12l-1 24q226 58 419 129q230 84 363 185l25 20q8 6 7 6
l-16 -11q-247 0 -508 -24q-46 -4 -105 34q-55 35 -80 77q137 -15 301 -15q83 0 250 10t248 10q85 0 196 -13q-45 -73 -347 -235q135 -10 270 -21q211 -24 211 -80z" />
    <glyph glyph-name="logicalnot" unicode="&#xac;" 
d="M990 1450q-32 -46 -50 -152q-25 -149 -29 -165l52 -21v-35l-58 -32q-14 -6 -68 -7l-340 -6q-61 -1 -91 -34q-40 -46 -72 -59q-27 49 -38 261q-9 193 -41 209q-38 18 -104 68q58 20 121 20q43 0 133.5 -10t136.5 -10q25 0 434 15zM817 1390h-394v-282h288q30 0 60 10
q39 14 40 37z" />
    <glyph glyph-name="florin" unicode="&#x192;" 
d="M1005 826q0 -62 -64 -62q-31 0 -151 125q-76 81 -153 162q-153 -176 -233 -247q-166 -146 -289 -142q123 94 296 319q193 249 193 351q-18 25 -63 59q-55 41 -68 54q35 16 67 26q111 -29 144 -41q95 -36 114 -82q-28 -74 -101 -214l184 -140q124 -96 124 -168z" />
    <glyph glyph-name="guillemotleft" unicode="&#xab;" 
d="M1060 1043q0 -73 -479 -73q-141 0 -175 22q-45 29 -45 152q0 35 -53 56q-41 13 -83 27l-24 47h618l5 124q-62 -2 -209 -21q-135 -18 -207 -18q-51 0 -106 34.5t-82 79.5l549 -2q17 0 55.5 8t58.5 8q75 0 101 -10q3 -16 11 -29q-37 -37 -49 -74q-12 -42 -23 -84
q17 -10 62 -65q-36 -36 -236 -40q-112 1 -224 3q-33 -1 -33 -21q0 -82 25 -115h158q49 0 136 26t131 26q118 0 118 -61z" />
    <glyph glyph-name="guillemotright" unicode="&#xbb;" horiz-adv-x="620" 
d="M615 602q0 -63 -193 -63q-43 0 -96 3t-51 3q8 -240 8 -253q0 -220 -96 -269q-59 40 -59 575q0 199 8.5 496.5t8.5 316.5q0 57 -190 146v54h74q155 0 213 -61q49 -50 49 -166q0 -38 -7.5 -139.5t-7.5 -162.5h64q69 45 152 45q123 0 123 -59q0 -70 -150 -70
q-44 0 -112.5 6.5t-76.5 6.5l14 -380q30 3 97 24q61 19 101 19q43 0 79 -15q48 -20 48 -57z" />
    <glyph glyph-name="ellipsis" unicode="&#x2026;" 
d="M989 1070q0 -148 -112 -237q-104 -82 -255 -82q-148 0 -251 81q-112 87 -112 232q0 100 57 165q43 50 136 93q81 36 163 73l-26 39l-1 43h61q17 0 51 -24.5t37 -39.5q-4 -17 -25 -45v-10q109 0 193 -89t84 -199zM856 1070q0 84 -75 143q-70 54 -157 54q-93 0 -160 -53
q-73 -57 -73 -148q0 -82 74 -142q69 -57 153 -57q94 0 163 53q75 58 75 150z" />
    <glyph glyph-name="nonbreakingspace" unicode="&#xa0;" horiz-adv-x="517" 
 />
    <glyph glyph-name="Agrave" unicode="&#xc0;" horiz-adv-x="620" 
d="M577 1540q0 -103 5 -379t5 -426q0 -383 -28 -581q-16 -106 -80 -163q-51 57 -51 617q0 209 7.5 525t7.5 340q-33 31 -100 73q-72 46 -101 70q38 26 78 26q60 0 138 -29q86 -32 119 -73zM261 1420q0 -35 2.5 -206.5t2.5 -289.5q0 -715 -88 -813l-50 11v609l-10 6
q-163 -34 -187 -34q-83 0 -161 93q372 0 172 -3q142 2 186 24v237q-39 0 -115.5 -12t-110.5 -12q-65 0 -127 78q57 15 176 12t177 13v215q0 24 -74 74q-51 33 -102 67q53 23 70 23q167 0 239 -92z" />
    <glyph glyph-name="Atilde" unicode="&#xc3;" horiz-adv-x="1654" 
d="M1511 639q0 -252 -5 -324q-15 -226 -73 -305h-44q-24 44 -26 343q3 -308 3 393h-153q0 -22 5 -118t5 -159q0 -281 -88 -375q-59 54 -59 236q0 48 5 133t5 114l-670 -206q-136 35 -225 104v38q275 0 426 21v176q-20 23 -60 48l-65 42q31 29 100 29q91 0 127 -28
q30 -25 30 -82q0 28 -17 -166q225 29 352 105v710q0 36 -71 77q-48 24 -96 47v44h131q30 0 165 -56v-645h153l2 632q0 41 -174 126v45h67q70 0 146 -22q101 -29 101 -78z" />
    <glyph glyph-name="Otilde" unicode="&#xd5;" 
d="M1585 1568q0 -785 -24 -856q-5 -16 -51 -84h-62v868q0 23 -79 67q-53 28 -107 55q37 36 68 32q121 -14 136 -18q80 -18 119 -64zM1308 1503q0 -60 5 -230q4 -146 2 -232q-3 -127 -19 -228q-8 -53 -56 -125h-48q-18 93 -18 240h-89q-20 0 -59.5 -9t-55.5 -9q-44 0 -183 87
l387 4v231l-58 1q-28 1 -85.5 -11t-86.5 -12q-57 0 -146 89l376 2v131q-17 12 -163 76q34 49 65 49q38 0 118 -18q84 -19 114 -36z" />
    <glyph glyph-name="OE" unicode="&#x152;" 
d="M812 1468q-16 -16 -48 -41q-27 -15 -284 -18q-41 -1 -93 45q-48 44 -61 85l391 -17q48 -2 95 -54zM1034 1308q0 -56 -170 -67q-25 -2 -212 -1q12 -14 18 -33l-9 -28q278 -85 278 -257q0 -122 -112 -191q-96 -59 -225 -59q-132 0 -229 64q-112 74 -112 199q0 93 50 142
q32 32 116 64q94 35 132 63q0 39 -61 39q-39 0 -118.5 -14.5t-118.5 -14.5q-53 0 -168 71v44l232 -24h222q68 0 199 26.5t197 26.5q59 0 84 -22zM811 925q0 79 -71 124q-60 37 -144 37q-77 0 -133 -35q-66 -41 -66 -114q0 -74 72 -121q63 -42 141 -42q75 0 133 37
q68 43 68 114z" />
    <glyph glyph-name="oe" unicode="&#x153;" 
d="M1534 1128q0 -33 -62 -33q-19 0 -164 65q-178 79 -183 81q-65 -69 -215 -167q-173 -113 -249 -113q-10 0 -18 3l-6 24q111 62 195 139l-2 7q-40 16 -177 111q-125 -111 -387 -216l-57 21q111 63 244 175q160 136 186 217q-5 27 -93 86v42h70q22 0 103 -37q93 -42 93 -75
q0 -27 -91 -132q87 -42 100 -52q47 -33 60 -89q56 52 131 143q93 112 97 152q-14 36 -102 87l19 34l22 8q43 0 134 -45q98 -49 98 -85q0 -43 -98 -153q160 -51 207 -71q145 -63 145 -127z" />
    <glyph glyph-name="quoteleft" unicode="&#x2018;" 
d="M1454 1141q0 -58 -180 -71q-24 -1 -225 -1q-103 0 -143 57q-32 46 -32 143q0 30 4 96t4 99q-36 26 -105 80q33 30 58 30q37 0 114.5 -15.5t117.5 -15.5q43 0 119 23t118 23q115 0 115 -55q0 -67 -203 -67q-15 0 -43 1h-41q-99 0 -122 -16v-144q0 -84 4 -101
q11 -56 62 -56q46 0 134.5 21t130.5 21q113 0 113 -52zM872 1172q-69 -69 -203 -126q-137 -59 -233 -59q-93 0 -93 278q0 38 2 85t2 48q0 27 -56 64q-77 49 -84 56q50 22 96 22q29 0 88 -12t89 -12q34 0 87 20.5t89 20.5q107 0 107 -56q0 -48 -99 -56q6 0 -132 0
q-62 0 -62 -40q0 -287 7 -294l11 -1q73 0 190 31l180 52z" />
    <glyph glyph-name="quoteright" unicode="&#x2019;" 
d="M1439 1053q0 -41 -71 -61q-9 -3 -371 -11q-351 -8 -413 -8q-152 0 -180 56q-8 62 -17 124q-21 82 -151 124q42 62 116 62q100 0 300 -14.5t300 -14.5q125 0 226 25v166l-357 1q-68 0 -174 -13q-88 -11 -175 -22q-60 -7 -134 37t-104 99q281 -24 425 -24q102 0 305 15
t304 15q89 0 123 -23v-40q-33 -31 -67 -93q-37 -68 -37 -107q25 -18 74 -61q-13 -4 -54 -27q-32 -18 -56 -18q-606 0 -381 2q-247 -2 -331 -23l-4 -11q4 -59 8 -119q14 -41 94 -41q75 0 390 15q43 1 134 24q86 21 136 21q69 0 88 -4q54 -10 54 -51z" />
    <glyph glyph-name="divide" unicode="&#xf7;" horiz-adv-x="1654" 
d="M1404 56q0 -17 -11 -44h-63l-227 302q-196 -283 -354 -350l-15 19q145 180 190 245q118 172 118 266q0 33 -107 99v39l43 13q208 -82 208 -126q0 -38 -55 -130q85 -75 169 -150q104 -102 104 -183zM827 115l-40 -9q-37 0 -107 98q-39 59 -77 118q-106 -122 -222 -216
q-164 -132 -262 -127q192 182 255 249q185 196 185 271q0 16 -108 77v41l51 3q41 0 119 -33q88 -37 88 -71q0 -16 -66 -131q110 -83 133 -110q55 -64 51 -160z" />
    <glyph glyph-name="Ydieresis" unicode="&#x178;" 
d="M1553 1113l-4 -28q-13 -16 -39 -19l-371 171q-113 -88 -227 -176q-139 -99 -256 -123l-24 30q120 57 302 232q186 180 233 289q-30 0 -89.5 -5.5t-88.5 -5.5q-97 0 -161 94h297q29 0 87 12.5t87 12.5q28 0 70 -21l-3 -36l-172 -232q109 -32 219 -63q140 -49 140 -132z
M864 1179q0 -60 -51 -60q-28 0 -90 72l-82 102q-92 -88 -218 -169q-144 -92 -245 -116l-12 42q296 198 476 427q-5 3 3 8q-42 -1 -125 -13t-122 -12q-33 0 -131 76v38q105 -15 176 -15q61 0 182 11t182 11l36 -31l-141 -189q53 -34 105 -69q57 -39 57 -113z" />
    <glyph glyph-name="currency" unicode="&#xa4;" 
d="M1374 1573q0 -67 -61 -67q-25 0 -265 2q-160 1 -264 -1q-145 -4 -265 -14q221 -153 221 -247q0 -43 -39 -86l218 -4q30 79 60 218q-25 47 -89 83v45h55q44 0 111.5 -29.5t88.5 -61.5q-24 -64 -120 -242l23 -4q29 0 85 17.5t87 17.5q43 0 86 -18q54 -22 54 -58
q0 -54 -90 -54q-23 0 -62 4t-49 4q-49 0 -174 3q-110 2 -176 0q-96 -2 -174 -15q-14 -3 -75 -20q-49 -14 -73 -14q-55 0 -119 44q-57 39 -91 90l349 -5q-17 19 -26 43q-13 39 -41 117q-25 37 -64 120q-7 21 -10 49l-18 -2q-45 -5 -107 39q-59 41 -81 84q282 -21 294 -21
q380 0 466 9q27 2 93 21q58 16 94 16q148 0 148 -63z" />
    <glyph glyph-name="guilsinglleft" unicode="&#x2039;" 
d="M1051 1437q-16 -18 -32 -37q-19 -19 -41 -25q-17 -5 -56 -5q-216 -6 -292 -12q-121 -9 -280 -40q-36 -7 -101 41q-55 41 -82 80q74 0 222.5 -3t222.5 -3q56 0 155 30t150 30q57 0 76 -7q27 -9 58 -49zM1031 902q-51 -83 -330 -163q-166 -41 -331 -81q-188 71 -246 161
l49 2q30 1 85 -8q59 -9 86 -9q58 0 171 14.5t170 14.5l28 9q19 48 48 172q30 130 30 173q0 35 -110 103v33l59 13q44 0 113 -28q76 -31 94 -64l-135 -375q38 0 108 17t111 16zM567 998q0 -36 -23 -85q-27 -57 -58 -57q-38 0 -52 66q-16 76 -32 153q-21 87 -49 147q-2 2 -4 6
v57h36q182 -192 182 -287z" />
    <glyph glyph-name="guilsinglright" unicode="&#x203a;" 
d="M1454 1137l-6 -29l-19 -15l-50 -2q-71 -4 -262 64l-266 102q-124 -99 -294 -188q-210 -111 -322 -107l-6 24q195 104 347 207q256 174 256 262q-16 19 -114 90v38l47 4q46 4 132 -31q94 -39 116 -82q-13 -59 -92 -142q43 -28 190 -53q182 -32 231 -47q112 -35 112 -95z
" />
    <glyph glyph-name="daggerdbl" unicode="&#x2021;" 
d="M1050 871q0 -17 -19 -40.5t-35 -25.5q-31 13 -91 102q-76 111 -89 125q-89 -135 -243 -272q-188 -168 -302 -163q110 99 167 154q129 127 139 169q-42 59 -121 158q-262 -297 -419 -290q81 55 259 261q188 217 182 266l-33 3q-25 0 -76 -7t-76 -7q-65 0 -148 96
q70 0 208 9.5t206 9.5q35 0 61 -27l27 -2q45 -4 114 4q56 7 113 14q60 5 117 -22q-56 -153 -118 -269q60 -54 120 -107q57 -62 57 -139zM822 1315h-46q-51 0 -93 -14q-12 26 -17 26h-52q-31 -77 -107 -175q125 -64 140 -139q125 153 175 302z" />
    <glyph glyph-name="periodcentered" unicode="&#xb7;" 
d="M1017 1451q0 -18 -14 -37.5t-32 -19.5q-257 0 -305 -2q-156 -6 -296 -37q-54 -11 -185 92l11 45l307 -28q201 0 292 29q49 15 85 15q67 0 85 -4q52 -11 52 -53zM1078 1063q0 -51 -86 -53q-145 0 -433 -11q-29 -2 -103 -19q-68 -15 -98 -15q-46 0 -115 44q-64 41 -93 83
h76q51 0 153 -9t152 -9q156 0 185 20q41 28 41 170q-40 46 -92 118h109l131 -53q-18 -90 -73 -237q95 35 130 35q116 0 116 -64zM547 1176q0 -27 -20 -57q-23 -33 -48 -33q-28 0 -62 67q-22 47 -43 94q-15 26 -39 56v43h43l104 -72q65 -53 65 -98z" />
    <glyph glyph-name="periodcentered" unicode="&#x2219;" 
d="M1017 1451q0 -18 -14 -37.5t-32 -19.5q-257 0 -305 -2q-156 -6 -296 -37q-54 -11 -185 92l11 45l307 -28q201 0 292 29q49 15 85 15q67 0 85 -4q52 -11 52 -53zM1078 1063q0 -51 -86 -53q-145 0 -433 -11q-29 -2 -103 -19q-68 -15 -98 -15q-46 0 -115 44q-64 41 -93 83
h76q51 0 153 -9t152 -9q156 0 185 20q41 28 41 170q-40 46 -92 118h109l131 -53q-18 -90 -73 -237q95 35 130 35q116 0 116 -64zM547 1176q0 -27 -20 -57q-23 -33 -48 -33q-28 0 -62 67q-22 47 -43 94q-15 26 -39 56v43h43l104 -72q65 -53 65 -98z" />
    <glyph glyph-name="quotesinglbase" unicode="&#x201a;" 
d="M1014 877q0 -132 -48 -132q-2 0 -48 22t-92 22q-51 0 -71 -8l-54 -73l-41 10q-21 56 -21 76v528q0 24 -44 63q-58 53 -64 61q45 16 59 16q26 0 83 -21.5t81 -38.5l7 -209h133q4 17 4 34v85q0 55 -24 78q-14 14 -75 41v46h107q24 0 65.5 -32t41.5 -55zM535 1342
q0 -21 1.5 -99.5t1.5 -129.5q0 -349 -69 -430q-31 21 -38 28q-16 16 -16 41h-134q-14 -26 -43 -78h-68q0 777 3 327q-2 274 -27 292l-117 84q61 17 92 17q103 0 134 -25q27 -22 27 -94q0 -13 -1 -42q-1 -33 -1 -50h134v127l-24 44l-77 36v45h99q28 0 75.5 -32.5t47.5 -60.5z
M892 865v251h-126v-251h126zM404 841v269h-116v-269h116z" />
    <glyph glyph-name="quotedblbase" unicode="&#x201e;" 
d="M1042 785q0 -64 -37 -64q-33 0 -115 103q-52 68 -104 137q-165 -218 -423 -385l-59 11q157 152 298 333q193 248 193 365q-9 14 -125 114q23 11 46 25q45 0 135 -41q98 -44 98 -79q0 -13 -103 -257q61 -57 121 -114q75 -83 75 -148zM618 974q0 -24 -16.5 -45t-39.5 -21
q-19 0 -71 65q-33 43 -67 86q-76 -100 -190 -185q-124 -91 -236 -120q391 402 391 490q0 38 -103 102v46h79q24 0 104 -42.5t80 -63.5q0 -32 -69 -148q138 -98 138 -164z" />
    <glyph glyph-name="perthousand" unicode="&#x2030;" 
d="M997 1387q-134 -264 -247 -420q-157 -219 -343 -342q-73 -42 -214 -131l-56 14q347 270 527 570q-7 -3 -15 -12q-337 -88 -353 -88q-56 0 -184 97v38q24 2 66 -1q50 -4 66 -4q81 0 242 11q206 13 222 30q79 83 106 174q-24 16 -29 16q-63 0 -188.5 -24t-185.5 -24
q-99 0 -206 134q31 0 97 -10t96 -9q104 -2 309 7q21 2 89 15q55 11 90 11q25 0 94 -10q12 -19 17 -42z" />
    <glyph glyph-name="Acircumflex" unicode="&#xc2;" horiz-adv-x="1654" 
d="M1623 748q1 -26 -21 -44t-151 -24q-82 -3 -164 -5q-1 -14 1 -76q1 -72 1 -120q0 -374 -91 -466q-68 43 -68 245q0 74 10 197t10 147q-88 -35 -439 -124q-355 -91 -408 -91q-70 0 -150 39.5t-118 96.5q296 0 514 37q14 27 14 141q0 58 -39 87l-86 48v43h113
q142 0 142 -131q0 -25 -5.5 -80.5t-5.5 -82.5h41q108 20 217 40q127 27 210 66v782q-35 33 -94 63q-93 47 -101 52v46q13 -1 36.5 3.5t33.5 4.5q45 0 138 -31q86 -28 134 -56l-7 -794h58q1 0 59 26t96 26q50 0 105 -30z" />
    <glyph glyph-name="Ecircumflex" unicode="&#xca;" horiz-adv-x="1654" 
d="M1622 643q0 -64 -76 -64q-14 0 -42 2.5t-40 2.5l-312 -6q0 -36 2.5 -113.5t2.5 -117.5q0 -238 -76 -369l-36 2l-15 12q-14 36 -14 188q0 86 5 228q5 154 5 167q-36 -2 -131 -11q-81 -7 -129 -7q-57 0 -106 9q6 -246 6 -256q0 -166 -67 -279q-79 28 -79 238q0 60 7 156
t7 115l-13 13q-43 0 -124.5 -18t-117.5 -18q-50 0 -232 111v44q43 0 125.5 -12.5t123.5 -12.5q72 0 226 -2.5t234 -2.5q286 0 471 30q3 0 106 21q68 14 105 14q184 0 184 -64z" />
    <glyph glyph-name="Aacute" unicode="&#xc1;" horiz-adv-x="1654" 
d="M1640 183q0 -19 -21.5 -43.5t-39.5 -24.5q-107 0 -313.5 4.5t-307.5 4.5q-381 0 -653 -51q-6 -1 -12 -1q-50 0 -126.5 51t-100.5 94q124 0 372 -6.5t371 -6.5v294q-28 36 -57 51q-8 4 -72 27l-16 46q68 25 64 25q141 0 195 -49q45 -40 45 -135q0 -33 -7 -113
q-8 -85 -9 -133h340q5 0 69 24t97 24q60 0 110 -16q72 -22 72 -66z" />
    <glyph glyph-name="Edieresis" unicode="&#xcb;" horiz-adv-x="1654" 
d="M1654 315q0 -71 -165 -71q-26 0 -63.5 1.5t-43.5 1.5h-543q-105 0 -292.5 -28t-237.5 -28q-59 0 -143 48.5t-116 99.5q20 25 38 25q64 0 196.5 -18t199.5 -18q148 0 677 19q50 2 151 30q97 26 143 26q199 0 199 -88z" />
    <glyph glyph-name="Egrave" unicode="&#xc8;" horiz-adv-x="1654" 
d="M1479 1472l-3 -1255q0 -95 -77 -192q-46 29 -46 71v1311q0 45 -157 110v43q9 1 29.5 6.5t29.5 5.5q54 0 131 -27q93 -32 93 -73zM1221 1405v-1022q0 -154 -62 -260h-58l6 376l-41 3q-27 2 -74 -12q-50 -15 -72 -15q-56 0 -149 86q35 1 123 8q78 7 123 7t84 -5v765
q-12 11 -81 57q-51 34 -71 64l109 10q52 0 163 -62zM1051 765q-37 -42 -192 -104q-123 -48 -123 -119q0 -326 -81 -355q-48 12 -48 167q0 47 5 124t5 91l-9 14q-62 -15 -184 -50q-111 31 -207 111q33 17 70 21q26 4 68 2q60 -3 72 -3q128 0 314 37z" />
    <glyph glyph-name="Iacute" unicode="&#xcd;" horiz-adv-x="620" 
d="M376 1501l-2 -1258q0 -135 -86 -201q-50 30 -50 68v1311q-28 41 -86 72q-52 24 -105 48l13 37q24 19 56 19q61 0 149 -25q111 -30 111 -71z" />
    <glyph glyph-name="Icircumflex" unicode="&#xce;" 
d="M1694 986q0 -79 -176 -79q-45 0 -108.5 5.5t-68.5 5.5q0 -336 -101 -401q-36 50 -36 79v825q-61 56 -190 109v44q49 13 70 13q257 0 257 -152v-448h54q-3 0 65 25.5t111 25.5q123 0 123 -52z" />
    <glyph glyph-name="Idieresis" unicode="&#xcf;" 
d="M1561 1502q0 -24 4 -171t4 -250q0 -504 -85 -600h-48v485h-176q0 -286 -75 -358q-47 29 -47 69v665q0 18 -71 61q-79 48 -93 70q48 12 80 12q132 0 179 -42q40 -35 40 -124q0 -28 -6.5 -117.5t-6.5 -153.5h174v383q-24 41 -85 76q-52 27 -104 53q43 41 73 41
q49 0 138 -28q105 -34 105 -71z" />
    <glyph glyph-name="Igrave" unicode="&#xcc;" horiz-adv-x="1654" 
d="M1380 1508q0 -27 3 -238.5t3 -364.5q0 -818 -80 -909l-30 18q-21 18 -27 148q-4 93 -2 249q4 208 4 175q-10 13 -8 18q-156 -44 -431 -106q-307 -68 -427 -100q-109 29 -156 51q-90 43 -115 110q54 0 163 -7t163 -7q289 0 811 129v735q0 37 -85 83q-61 32 -123 64l20 28
l53 19q169 0 264 -95z" />
    <glyph glyph-name="Oacute" unicode="&#xd3;" 
d="M1622 1534v-525q0 -216 -78 -302q-62 30 -62 77v647q0 30 -84 83q-48 27 -95 54q29 43 77 43q130 0 242 -77zM1335 1384q0 -8 1.5 -78t1.5 -124q0 -463 -100 -463q-1 0 -36 21v252q-149 0 -287 -39q-13 27 -52 66l-2 25l95 16q10 2 50 -3q44 -7 54 -7l142 9v298
q-43 64 -168 109v43q25 15 61 15q88 0 153 -27q87 -37 87 -113z" />
    <glyph glyph-name="Ocircumflex" unicode="&#xd4;" 
d="M1479 1506q0 -24 1.5 -124.5t1.5 -169.5q0 -506 -95 -598h-49v229l-71 5l-200 -29q-57 -8 -195 99l462 4v291l-90 1q-35 0 -99 -12l-100 -20q-39 -7 -97 34q-51 36 -75 76l461 -5v158q-47 39 -205 118l8 28q18 20 58 20q59 0 161 -29q123 -35 123 -76z" />
    <glyph glyph-name="Ograve" unicode="&#xd2;" 
d="M1411 1578q0 -32 2 -158.5t2 -209.5q0 -511 -78 -621q-56 25 -56 80v344h-205q-14 0 -43.5 -7t-43.5 -7q-53 0 -84 21q-24 16 -58 66h434v395q0 26 -82 77q-96 60 -111 78q62 22 82 22q52 0 126.5 -24.5t114.5 -55.5z" />
    <glyph glyph-name="Uacute" unicode="&#xda;" 
d="M1631 776l-24 -42q-36 -14 -76 -14q-18 0 -56.5 4t-62.5 4q-679 0 -769 -5q-52 -3 -172 -29q-113 -25 -168 -25t-137 46q-86 49 -106 98q190 0 530 -19q4 15 4 37q0 82 -26 113q-22 26 -104 54v46q53 10 72 10q115 0 182 -47v-207h314v183q0 30 -43 62q-55 42 -64 55
l9 25h112q42 0 87.5 -40t45.5 -79q0 -24 -16.5 -70.5t-16.5 -65.5v-57h124q8 0 69.5 22.5t93.5 22.5q63 0 119 -15q79 -23 79 -67z" />
    <glyph glyph-name="Ucircumflex" unicode="&#xdb;" 
d="M1621 899l-22 -45q-35 -13 -93 -9l-94 7l-494 -7q5 -16 5 -44q0 -234 -73 -328h-40q-33 71 -33 189q0 30 2.5 89t2.5 86l-159 1q-53 1 -162 -23.5t-161 -24.5q-63 0 -130 37.5t-104 90.5q131 0 399 -4q265 -4 399 -4q118 0 327.5 29t271.5 29q158 0 158 -69z" />
    <glyph glyph-name="Ugrave" unicode="&#xd9;" 
d="M1400 1483q0 -30 2.5 -151.5t2.5 -201.5q0 -538 -97 -645l-38 26l-5 332l-896 -206q-41 -9 -235 95v42l391 -4q66 -1 111 9q11 37 11 82q0 51 -23 86q-41 14 -121 46q37 41 100 41q107 0 144 -19q33 -17 33 -63q0 -12 -5.5 -63.5t-3.5 -88.5h34l464 91v514
q-32 61 -199 130v43q45 9 77 9q69 0 139 -25q83 -29 114 -79z" />
    <glyph glyph-name="circumflex" unicode="&#x2c6;" 
d="M896 1415q0 -55 -94 -66q-9 -1 -134 -1q-101 0 -154 36q-43 29 -103 121q332 -58 471 -58q-2 -21 14 -32zM1005 1212l-205 -227q14 -20 122 -99q79 -58 79 -125q0 -29 -8 -69l-64 18q-61 80 -193 221q-176 -188 -391 -260q-62 -17 -171 -64l-72 16q416 204 698 534
q-26 16 -31 16q-71 0 -180 -15l-178 -26q-48 -6 -105 38q-49 37 -78 85q44 0 135.5 -7t137.5 -7q68 0 204 12.5t202 12.5q30 0 86 -12z" />
    <glyph glyph-name="tilde" unicode="&#x2dc;" 
d="M1387 1561q-1 -8 -5 -22q-14 -17 -40 -49q-26 -124 -62 -288q18 -32 57 -89q-47 -33 -115 -36q53 3 -125 3q-10 0 -158 4q-130 3 -206 1q-108 -2 -138 -15q-19 -9 -42 -38q-27 -34 -41 -43q-49 0 -62 210q-14 244 -25 265q-86 37 -149 72q25 53 110 53q75 0 229 -14
t231 -14q216 0 257 11q117 29 141 29q25 0 111 -19l11 -12l-3 3zM1161 1408q0 30 -9 71q-79 0 -237.5 2.5t-237.5 2.5q9 0 -89 -23v-288h331q98 0 231 25q0 35 5.5 105.5t5.5 104.5z" />
    <glyph glyph-name="macron" unicode="&#xaf;" 
d="M1082 1120q0 -54 -66 -54q-62 0 -381 119q-164 -133 -471 -261l-71 20l343 252q172 126 172 188q0 34 -115 96v42l40 10q56 0 163 -39q120 -44 120 -86q0 -15 -53 -72q-35 -36 -69 -73q31 -16 140 -32q123 -18 167 -32q81 -27 81 -78z" />
    <glyph glyph-name="macron" unicode="&#x2c9;" 
d="M1082 1120q0 -54 -66 -54q-62 0 -381 119q-164 -133 -471 -261l-71 20l343 252q172 126 172 188q0 34 -115 96v42l40 10q56 0 163 -39q120 -44 120 -86q0 -15 -53 -72q-35 -36 -69 -73q31 -16 140 -32q123 -18 167 -32q81 -27 81 -78z" />
    <glyph glyph-name="cedilla" unicode="&#xb8;" 
d="M843 1610q0 -43 -74 -46l-227 -7q-92 -2 -161 114q30 0 83 -8q57 -8 81 -9q38 -1 113 -4q1 0 29 2t50 2q106 0 106 -44zM1115 1486q0 -60 -203 -60q-46 0 -113 3q-62 3 -70 3l-15 -37q116 -26 164 -52q87 -48 87 -135q0 -97 -111 -153q-90 -45 -196 -45q-113 0 -201 45
q-110 56 -110 157q0 93 96 141q11 6 176 57q-4 9 -14 9q-81 0 -287 -20q-47 -5 -186 96q80 0 239 -3t239 -3q193 0 219 11q82 34 161 34q125 0 125 -48zM838 1215q0 51 -69 82q-55 25 -114 25q-57 0 -112 -25q-67 -32 -67 -83q0 -52 73 -84q60 -26 120 -26q62 0 110 24
q59 30 59 87z" />
    <glyph glyph-name="Scaron" unicode="&#x160;" 
d="M1057 912q-62 -92 -347 -174q-251 -71 -402 -71q-38 0 -69 50q-28 45 -28 86v521q-56 52 -175 98l54 49q38 6 50 4q194 -36 275 -36q65 0 182.5 30.5t159.5 30.5q75 0 125 -28l14 -26q-21 -65 -80 -70q-322 -28 -451 -28q2 -76 -5 -229l157 6q19 1 78.5 24.5t97.5 23.5
q34 0 66 -15q41 -19 41 -50q0 -73 -271 -73q-49 0 -111 3q-58 2 -59 2v-233l4 -7l31 -2q21 -1 42 -1q114 0 311 50q222 57 310 65z" />
    <glyph glyph-name="scaron" unicode="&#x161;" 
d="M1411 1198q0 -50 -18 -110q-23 -80 -59 -80q-25 0 -45 67h-222l-49 -85h-38q-26 30 -31 219q-1 125 -2 249q0 14 -44 58q-50 51 -59 66h118q6 0 44.5 -17.5t45.5 -23.5q20 -17 21 -59q-1 -33 -1 -66l1 -48l94 -3h72l48 1q6 23 6 57q0 78 -24 105q-23 13 -46 27t-23 60h99
q50 0 112 -47v-370zM795 1173q0 -167 -80 -201q-39 36 -38 86h-223q-22 -52 -62 -92h-51v418q0 39 -56 75l-86 46q56 27 94 27q127 0 152 -33q19 -24 19 -159h215v108q0 28 -107 85q30 43 59 43q93 0 164 -52v-351zM1285 1149v141h-212v-141h212zM671 1133v133h-211v-133
h211z" />
    <glyph glyph-name="brokenbar" unicode="&#xa6;" 
d="M999 1428q0 -81 -71 -260q-75 -191 -135 -227l-1 20q-11 2 -28 20q68 197 68 373q0 4 -7 15.5t-7 17.5q-114 0 -481 -36q-49 -4 -117 42q-61 41 -92 89q157 -18 286 -18q79 0 236 14.5t234 14.5q47 0 99 -7q1 -6 9 -29q7 -18 7 -29z" />
    <glyph glyph-name="Eth" unicode="&#xd0;" 
d="M1646 868q0 -72 -161 -72q-42 0 -102 5t-65 5q-12 -77 -24 -153q-23 -97 -81 -116q-23 37 -23 58v846q0 21 -87 74q-57 33 -113 66q50 46 79 40q116 -23 129 -25q73 -18 123 -45l9 -316q166 45 202 45q114 0 114 -57l-5 -27l-14 -15q-17 -8 -305 -8v-287l28 -3
q28 0 82.5 20.5t84.5 20.5q129 0 129 -56z" />
    <glyph glyph-name="eth" unicode="&#xf0;" horiz-adv-x="1654" 
d="M1412 82q0 -55 -115 -55q-31 0 -106 2q-67 2 -105 1q-142 -1 -174 25q-26 20 -30 216q-5 193 -43 218q-54 36 -68 70q13 -1 37.5 1.5t35.5 2.5q40 0 118 -15t117 -15q33 0 92.5 21t88.5 21q109 0 109 -55q0 -52 -59 -52l-282 -1q-6 -26 -20 -140l45 -5q35 0 95 21t88 21
q38 0 73 -12q47 -17 47 -47q0 -57 -174 -57q-44 0 -105.5 4t-65.5 4q-6 -36 -6 -71q0 -66 14 -79t80 -13q36 0 96 24.5t94 24.5q36 0 74 -13q49 -18 49 -47zM862 126q-48 -44 -187 -99t-197 -55t-79 53q-13 34 -13.5 113t-8.5 100q-14 11 -123 60q52 45 94 45q28 0 81 -10.5
t81 -10.5q83 0 121 19v142q-25 19 -54 19q-27 0 -80 -12.5t-81 -12.5q-76 0 -158 88l491 9q5 -15 14 -31q-28 -71 -57 -201q22 -7 67 -25v-42l-252 -16q-19 -17 -19 -83q0 -86 7 -100q16 -8 24 -8q84 0 291 76z" />
    <glyph glyph-name="Yacute" unicode="&#xdd;" 
d="M1500 1531q0 -16 2 -119t2 -179q0 -518 -87 -613h-49v838q0 32 -81 78l-100 50q41 41 79 41q53 0 134 -25q100 -31 100 -71zM1244 1466q0 -27 2 -130t2 -171q0 -454 -83 -556h-53l5 73l-3 110q-37 0 -234 -41q-53 -10 -101 72l334 34v537q-45 47 -138 90v44l69 2
q93 3 200 -64zM1037 980q-129 -68 -315 -104q0 -211 -85 -211q-48 0 -40 181l-5 3q-61 -18 -183 -48q-85 44 -114 63q-54 36 -96 87q391 0 605 42q110 21 215 21z" />
    <glyph glyph-name="yacute" unicode="&#xfd;" horiz-adv-x="1654" 
d="M1485 576q0 -50 -59 -51q-211 -1 -421 -2q-278 -11 -430 -72q-124 27 -205 149q136 0 411 -5.5t412 -5.5q12 0 71.5 22.5t100.5 22.5q120 0 120 -58zM1600 95q-55 -49 -109 -49q-10 0 -40.5 2t-53.5 2q-105 0 -315.5 -4.5t-315.5 -4.5q-42 0 -120 -21.5t-111 -21.5
q-25 0 -186 99v37q41 0 123.5 -8.5t122.5 -8.5h373q118 0 159 72q27 49 27 175q-12 19 -50 48l-60 44q23 30 51 40q55 -17 111 -34q71 -28 91 -64q-7 -52 -49 -137q-55 -113 -63 -135h88q23 0 76.5 22t79.5 22q123 0 171 -75zM856 236q0 -103 -71 -103l-161 336q19 -1 56 -2
q8 -1 53 -38q123 -103 123 -193z" />
    <glyph glyph-name="Thorn" unicode="&#xde;" 
d="M1401 1534q0 -10 6 -139.5t6 -226.5q0 -383 -89 -497q-65 38 -65 160q0 -9 8 121l-12 6q-131 -39 -263 -78q-204 -63 -201 -110q1 -12 7 -36.5t6 -37.5q0 -52 -101 -84q-28 64 -23 195l-11 4q-49 0 -143.5 -30t-136.5 -30q-34 0 -123 39q-80 35 -121 61v47q290 0 582 24
q409 34 540 100v431q-16 12 -103 61q-62 35 -88 78q27 -1 73 12q184 -21 252 -70z" />
    <glyph glyph-name="thorn" unicode="&#xfe;" horiz-adv-x="1654" 
d="M1019 605q0 -52 -102 -52l-82 1q-101 0 -154 19q-75 28 -111 106q247 -35 366 -35q83 0 83 -39zM1360 479q0 -61 -218 -61q-42 0 -134 2.5t-136 2.5q8 -15 12 -31l-12 -15q150 -59 171 -72q86 -54 86 -149q0 -114 -103 -175q-86 -51 -207 -51q-124 0 -210 55
q-102 64 -102 181q0 106 89 156q89 35 178 71l-10 23q-30 8 -41 8q-52 0 -150 -20.5t-143 -20.5q-129 0 -219 107q105 0 295 -4q197 -5 294 -5q176 0 258 17q10 2 86 22q71 19 74 19q42 0 84 -12q58 -17 58 -48zM1014 166q0 60 -71 97q-59 31 -126 31t-121 -31
q-64 -37 -64 -99q0 -63 64 -99q54 -30 121 -30t126 32q71 37 71 99z" />
    <glyph glyph-name="minus" unicode="&#xad;" 
d="M1000 1309q0 -268 -88 -337h-46l-11 37h-393q-25 -37 -68 -71h-61v398q0 26 -66 60q-47 21 -93 42q60 26 151 26q86 0 108 -13q28 -16 28 -81q0 -16 -1 -38h395l6 47q0 43 -65 72q-98 43 -100 45q26 22 73 22q163 0 194 -25q37 -30 37 -184zM846 1090v169h-379v-169h379z
" />
    <glyph glyph-name="minus" unicode="&#x2212;" 
d="M1000 1309q0 -268 -88 -337h-46l-11 37h-393q-25 -37 -68 -71h-61v398q0 26 -66 60q-47 21 -93 42q60 26 151 26q86 0 108 -13q28 -16 28 -81q0 -16 -1 -38h395l6 47q0 43 -65 72q-98 43 -100 45q26 22 73 22q163 0 194 -25q37 -30 37 -184zM846 1090v169h-379v-169h379z
" />
    <glyph glyph-name="multiply" unicode="&#xd7;" 
d="M1678 958q-18 -70 -179 -70q-38 0 -98.5 4.5t-74.5 4.5q0 -126 -9 -175q-18 -101 -82 -148q-42 36 -42 129q0 20 2 54t2 47l-8 6q-716 -222 -797 -222q-72 0 -253 97v49h492v150q-41 23 -119 75q23 34 95 34q99 0 119 -14q26 -19 26 -105q0 -92 14 -115q105 23 211 47
q172 41 221 66v545q0 41 -219 131q26 57 53 57q185 0 303 -78l-10 -558l13 -5q7 1 110 36q68 23 110 23q79 0 109 -30z" />
    <glyph glyph-name="onesuperior" unicode="&#xb9;" horiz-adv-x="620" 
d="M602 818q0 -79 -150 -79q-45 0 -118 7.5t-86 7.5q0 -7 4 -102t4 -169q0 -386 -93 -482h-51v1470q0 39 -96 86.5t-100 94.5h142q29 0 94.5 -24.5t95.5 -46.5v-758h49q2 0 70.5 26t111.5 26q123 0 123 -57z" />
    <glyph glyph-name="twosuperior" unicode="&#xb2;" 
d="M1073 1049q-22 -17 -58 -17q-92 0 -381 102q-89 -57 -225 -126q-172 -85 -232 -85l-98 11q245 127 348 196q150 102 301 265q-5 1 -26 1q-139 0 -339 -49q-91 27 -186 123q63 17 90 17q33 0 100 -8t101 -8q73 0 230 19q151 19 232 17l13 -57q-50 -68 -101 -135
q-59 -75 -118 -120q17 -24 64 -24q17 0 48.5 4t42.5 4q100 0 194 -72v-58z" />
    <glyph glyph-name="threesuperior" unicode="&#xb3;" 
d="M1106 1093q0 -45 -26 -45q-70 0 -236 122q-141 -114 -147 -118q-104 -74 -172 -72q25 47 113 133q-57 26 -169 113q-179 -167 -319 -192l-10 22q200 153 323 328q-34 5 -85 1q-69 -5 -83 -5q-75 0 -142 97q32 0 97.5 -2t97.5 -2t94.5 9t94.5 9q60 0 238 -5q147 -4 240 -1
l16 -29q-38 -74 -132 -215q65 -24 130 -49q77 -32 77 -99zM823 1392h-218q-17 -31 -74 -102q82 -31 93 -37q47 -25 67 -68q87 122 132 207z" />
    <glyph glyph-name="onehalf" unicode="&#xbd;" horiz-adv-x="620" 
d="M488 1501q0 -686 -3 -812q-12 -620 -67 -677q-77 61 -77 106v748h-215q-14 0 -48.5 -11t-51.5 -11q-84 0 -146 97h469v464q0 37 -79 89l-116 66v45l65 2q68 2 147 -26q89 -31 122 -80z" />
    <glyph glyph-name="onequarter" unicode="&#xbc;" horiz-adv-x="620" 
d="M551 1500q0 -46 2.5 -241.5t2.5 -324.5q0 -737 -71 -872h-55l-6 554h-168q0 -327 -62 -408h-41q-35 72 -35 273q0 116 15 363.5t15 336.5q0 161 -33 185q-77 37 -146 76q42 41 85 41q98 0 185 -57q17 -28 12 -326h173l2 250q1 97 -47 133l-132 68q44 40 80 40
q145 0 224 -91zM420 703v318h-162v-318h162z" />
    <glyph glyph-name="threequarters" unicode="&#xbe;" horiz-adv-x="620" 
d="M569 1503q0 -53 8 -429q7 -326 3 -519q-5 -279 -34 -402q-22 -97 -70 -137q-50 19 -50 54v1367q0 37 -193 137q19 29 34 38l34 3q50 0 151 -35q117 -39 117 -77zM238 347q0 -101 -65 -209h-55q0 11 -10 33t-10 35l-7 737l-56 3q-27 2 -79 -9.5t-75 -11.5q-42 0 -136 68
v41h350l3 334q-72 57 -166 103v45h76q70 0 139 -25q91 -32 91 -88v-1056z" />
  </font>
</defs>
</svg>
